<svg width="270" height="70" viewBox="0 0 270 70" fill="none" xmlns="http://www.w3.org/2000/svg">
<path d="M94.1543 23.9844C93.8292 23.9988 93.5264 24.0935 93.2598 24.2012C93.01 24.3017 92.0558 24.711 90.5527 25.3555C89.0484 26.0006 87.0565 26.8558 84.9316 27.7696C80.682 29.5971 75.9042 31.6542 73.457 32.7071C73.365 32.7467 73.0439 32.8492 72.7031 33.1153C72.3623 33.3813 72 33.9326 72 34.5469C72 35.0423 72.2361 35.5344 72.5332 35.8282C72.8303 36.122 73.1447 36.2671 73.4141 36.377C74.3912 36.7757 77.4218 38.0159 77.9941 38.2501C78.1955 38.867 79.2925 42.2226 79.5469 43.045C79.7146 43.5877 79.8742 43.9276 80.082 44.1973C80.1859 44.3322 80.3067 44.4504 80.4531 44.543C80.5116 44.58 80.5758 44.6086 80.6406 44.6348L80.6445 44.6368C80.6595 44.6428 80.6723 44.653 80.6875 44.6583C80.7161 44.6683 80.7352 44.6695 80.7734 44.6778C80.9258 44.727 81.0795 44.7579 81.2168 44.7579C81.802 44.7579 82.1602 44.4356 82.1602 44.4356L82.1816 44.42L85.1914 41.8165L88.8418 45.2696C88.8932 45.3423 89.3725 46.0001 90.4297 46.0001C91.0574 46.0001 91.5553 45.6851 91.875 45.3497C92.1947 45.0143 92.3938 44.6619 92.4785 44.2188V44.2169C92.5577 43.7982 95.9219 26.5274 95.9219 26.5274L95.916 26.5508C96.0145 26.1013 96.0403 25.6827 95.9316 25.2696C95.823 24.8565 95.5366 24.461 95.1816 24.2481C94.8267 24.0353 94.4794 23.9701 94.1543 23.9844ZM93.9668 26.0743C93.962 26.1035 93.9704 26.0888 93.9629 26.1231L93.9609 26.1348L93.959 26.1465C93.959 26.1465 90.6365 43.1964 90.5137 43.8458C90.5227 43.7967 90.4816 43.8942 90.4395 43.9532C90.3799 43.9121 90.2578 43.8594 90.2578 43.8594L90.2383 43.838L85.252 39.1212L81.7266 42.168L82.7754 37.9688C82.7754 37.9688 89.3316 31.1822 89.7266 30.7872C90.0446 30.4712 90.1113 30.361 90.1113 30.252C90.1113 30.106 90.0352 30.0001 89.8652 30.0001C89.7122 30.0001 89.5065 30.1488 89.3965 30.2188C87.9634 31.1324 81.6718 34.7992 78.8516 36.4395C78.4034 36.2561 75.2897 34.9815 74.2344 34.5508C74.2424 34.5473 74.2397 34.5486 74.248 34.545C76.6959 33.4918 81.4716 31.4347 85.7207 29.6075C87.8452 28.6939 89.8387 27.838 91.3418 27.1934C92.8218 26.5587 93.8501 26.1219 93.9668 26.0743Z" fill="#212121"/>
<g clip-path="url(#clip0_4_401)">
<path d="M184.429 25.6616C182.876 25.6469 181.704 25.7202 180.723 26.2255C180.32 26.4306 180.034 26.6943 179.814 27.0019C179.697 27.1557 179.587 27.2949 179.536 27.6171C179.507 27.771 179.485 28.0273 179.646 28.3056C179.807 28.5913 180.151 28.7817 180.386 28.8183C180.561 28.8403 180.935 28.9941 181.001 29.082C181.155 29.3017 181.213 29.4629 181.235 29.5507C181.257 29.6386 181.25 29.58 181.25 29.58V29.6679C181.25 29.6679 181.309 30.5908 181.272 31.5429C181.25 32.0117 181.206 32.5024 181.133 32.832C181.06 33.1616 180.876 33.2421 181.14 33.0883C180.957 33.1982 181.023 33.2421 180.796 33.125C180.561 33.0151 179.954 32.5024 179.155 31.0669C178.357 29.624 177.778 28.8769 177.646 28.7158C177.595 28.5693 177.471 28.269 177.046 27.9394C176.497 27.5146 175.933 27.5073 175.933 27.5073L175.881 27.5H171.787C171.787 27.5 171.553 27.5073 171.282 27.5659C171.011 27.6245 170.623 27.6904 170.256 28.1445H170.249C169.875 28.6206 169.941 29.0527 169.971 29.3164C170.007 29.5874 170.088 29.7998 170.088 29.7998L170.102 29.8437L170.124 29.8877C170.124 29.8877 173.252 36.56 176.987 40.625C180.496 44.4482 184.56 44.375 184.56 44.375H186.868L186.919 44.3676C186.919 44.3676 187.659 44.4043 188.281 43.7085C188.596 43.3496 188.669 43.0127 188.706 42.7636C188.75 42.5073 188.75 42.3022 188.75 42.3022V42.3608C188.75 42.3608 188.779 41.8774 188.911 41.372C188.977 41.123 189.072 40.874 189.16 40.7348C189.204 40.6543 189.204 40.6762 189.219 40.6543C189.38 40.7714 189.644 41.0424 189.922 41.3867C190.493 42.0678 191.138 43.0127 192.039 43.6645C192.69 44.1259 193.306 44.331 193.774 44.4043C194.089 44.4555 194.316 44.4482 194.47 44.4336L197.656 44.375H197.685C197.685 44.375 198.345 44.3603 199.004 43.9428C199.326 43.7378 199.7 43.3642 199.824 42.8295C199.956 42.2949 199.81 41.7163 199.502 41.1816C199.604 41.3647 199.48 41.123 199.385 40.9326C199.29 40.7421 199.143 40.4858 198.923 40.1635C198.498 39.5337 197.795 38.6474 196.631 37.5195C196.081 36.9921 195.73 36.6992 195.51 36.4941C195.576 36.3989 195.583 36.3916 195.832 36.0986C196.228 35.6372 196.807 34.956 197.539 33.9379C198.418 32.7075 199.055 31.7041 199.465 30.8691C199.875 30.0415 200.205 29.353 199.839 28.5034C199.641 28.042 199.29 27.8662 199.033 27.7563C198.769 27.6464 198.535 27.6025 198.315 27.5659C197.883 27.5 197.502 27.5 197.502 27.5L193.789 27.5293C193.679 27.5073 193.254 27.4267 192.705 27.7783C192.163 28.1152 192.039 28.4741 192.009 28.5839C191.921 28.7085 191.306 29.58 190.449 31.1035C189.585 32.6416 188.999 33.059 188.926 33.0957C188.904 33.0737 188.948 33.081 188.845 33.0224C188.801 32.9858 188.757 32.9565 188.721 32.561C188.691 32.1655 188.728 31.5429 188.728 30.8105C188.728 29.2358 188.867 28.4155 188.787 27.6318C188.75 27.2363 188.589 26.7529 188.237 26.4306C187.886 26.1157 187.505 25.9985 187.109 25.896C186.487 25.7421 185.644 25.6762 184.429 25.6616ZM184.414 27.5366C185.549 27.5512 186.348 27.6391 186.641 27.7124C186.89 27.7783 186.926 27.8076 186.919 27.7929C186.919 27.8076 186.919 27.8003 186.919 27.8222C186.948 28.1372 186.853 29.1479 186.853 30.8105C186.853 31.4624 186.802 32.0922 186.853 32.7221C186.904 33.352 187.131 34.1211 187.798 34.5752H187.805C187.725 34.5239 188.647 35.2124 189.526 34.8974C190.405 34.5752 191.101 33.7695 192.09 32.019C192.954 30.4663 193.591 29.5947 193.591 29.5947L193.65 29.5068L193.694 29.4189C193.694 29.4189 193.679 29.4116 193.694 29.4043L197.502 29.375C197.502 29.375 197.766 29.375 198.022 29.4189C198.03 29.4189 198.037 29.4189 198.044 29.4189C198.008 29.4336 198.037 29.5288 197.781 30.0488C197.451 30.7153 196.858 31.6674 196.016 32.8466C195.32 33.8061 194.8 34.4287 194.412 34.8828C194.023 35.3295 193.73 35.542 193.54 36.1279C193.445 36.4135 193.467 36.8383 193.606 37.124C193.738 37.4023 193.899 37.5561 194.06 37.7099C194.382 38.0175 194.763 38.3178 195.32 38.8671C196.411 39.9218 197.026 40.6982 197.371 41.2109C197.546 41.4746 197.649 41.6577 197.715 41.7895C197.781 41.9213 197.737 41.8701 197.883 42.1191C198.008 42.3462 197.986 42.3754 197.986 42.3608C197.861 42.434 197.546 42.5 197.539 42.5L194.353 42.5586L194.265 42.5805C194.265 42.5805 194.272 42.5879 194.075 42.5586C193.87 42.5219 193.547 42.434 193.137 42.1411C192.632 41.7822 191.995 40.9472 191.365 40.1855C191.057 39.812 190.742 39.4458 190.347 39.1528C189.951 38.8598 189.329 38.5888 188.691 38.8012C188.142 38.977 187.783 39.3798 187.556 39.7534C187.329 40.1342 187.197 40.5297 187.095 40.8886C186.904 41.6137 186.875 42.2656 186.875 42.2656V42.3242C186.875 42.3242 186.875 42.3681 186.86 42.434C186.824 42.4487 186.772 42.4853 186.743 42.5H184.502C184.502 42.5 181.404 42.6611 178.364 39.3652C175.112 35.8129 172.219 29.873 171.977 29.375H175.749C175.786 29.3896 175.918 29.4409 175.903 29.4336C175.815 29.3603 175.947 29.5214 175.947 29.5214L176.006 29.6606L176.108 29.7778C176.108 29.7778 176.687 30.4809 177.515 31.9751C178.401 33.5791 179.148 34.414 179.983 34.8169C180.818 35.2197 181.697 34.934 182.07 34.7216C182.766 34.3188 182.847 33.7548 182.964 33.2348C183.081 32.7148 183.118 32.1582 183.14 31.6162C183.184 30.5761 183.125 29.6899 183.125 29.624C183.118 29.602 183.118 29.3457 183.044 29.0673C182.964 28.7817 182.817 28.4082 182.539 28.0127C182.422 27.8515 182.312 27.9321 182.187 27.8149C182.707 27.6684 183.264 27.5219 184.414 27.5366Z" fill="#212121"/>
</g>
<path d="M34.5 23C27.6075 23 22 28.6075 22 35.5C22 42.3925 27.6075 48 34.5 48C41.3925 48 47 42.3925 47 35.5C47 28.6075 41.3925 23 34.5 23ZM34.5 24.875C40.3791 24.875 45.125 29.6209 45.125 35.5C45.125 40.2908 41.9731 44.3266 37.625 45.6575V42.4604C37.625 41.2666 36.9371 40.2429 35.9429 39.7334C36.9096 39.5485 37.8072 39.1817 38.5612 38.6637C39.3153 38.1456 39.904 37.4912 40.2785 36.7546C40.6531 36.0181 40.8026 35.2207 40.7148 34.4286C40.6269 33.6366 40.3042 32.8727 39.7734 32.2004C40.0507 31.3471 40.3603 29.8504 39.6245 28.6726C38.2058 28.6726 37.2904 29.6451 36.8535 30.2498C36.1066 30.0044 35.3074 29.8771 34.5 29.875C33.6921 29.8757 32.892 30.0017 32.144 30.2461C31.7061 29.6411 30.7914 28.6726 29.3755 28.6726C28.5311 30.0243 29.0531 31.4778 29.3328 32.071C28.7661 32.7404 28.4108 33.5098 28.2973 34.3131C28.1837 35.1164 28.3154 35.9298 28.681 36.6835C29.0465 37.4372 29.6351 38.1087 30.3962 38.6406C31.1573 39.1724 32.0683 39.5486 33.051 39.7371C32.2347 40.1578 31.6233 40.9213 31.436 41.8477H30.6145C29.8039 41.8477 29.4889 41.5183 29.0508 40.9626C28.6183 40.407 28.1532 40.0337 27.5945 39.8787C27.2932 39.8468 27.0903 40.0759 27.3528 40.2791C28.2397 40.8828 28.3009 41.8709 28.6565 42.5178C28.9802 43.1003 29.6436 43.625 30.3936 43.625H31.375V45.6575C27.0269 44.3266 23.875 40.2908 23.875 35.5C23.875 29.6209 28.6209 24.875 34.5 24.875Z" fill="black"/>
<path d="M242.578 23.0001C242.328 22.9979 242.105 23.1563 242.027 23.3952L239.185 32.1429H231.101L228.259 23.3952C228.183 23.1653 227.971 23.0068 227.728 23.0001C227.485 22.9956 227.266 23.143 227.179 23.3706L223.755 32.509C223.753 32.509 223.753 32.5112 223.75 32.5135L222.036 37.0849C221.947 37.3259 222.027 37.596 222.237 37.7478L234.804 46.8862L234.806 46.8906C234.808 46.8906 234.808 46.8906 234.808 46.8929C234.815 46.8973 234.824 46.9018 234.831 46.9062C234.84 46.9107 234.846 46.9174 234.855 46.9219C234.857 46.9219 234.857 46.9241 234.86 46.9241C234.86 46.9241 234.862 46.9263 234.864 46.9263C234.866 46.9286 234.869 46.9308 234.873 46.9308C234.875 46.933 234.88 46.9353 234.882 46.9375C234.893 46.942 234.906 46.9487 234.92 46.9531C234.92 46.9531 234.92 46.9531 234.92 46.9554C234.933 46.9598 234.947 46.9643 234.958 46.9687C234.96 46.9687 234.96 46.9687 234.962 46.971C234.971 46.9732 234.98 46.9754 234.991 46.9799C234.996 46.9799 235 46.9821 235.007 46.9821C235.007 46.9844 235.007 46.9844 235.007 46.9821C235.018 46.9866 235.029 46.9888 235.04 46.9911C235.056 46.9933 235.069 46.9955 235.085 46.9978C235.107 46.9978 235.132 47 235.154 47C235.177 46.9978 235.197 46.9978 235.217 46.9933C235.226 46.9933 235.232 46.9933 235.241 46.9911C235.241 46.9911 235.244 46.9911 235.246 46.9911C235.25 46.9888 235.252 46.9888 235.257 46.9888C235.259 46.9888 235.261 46.9866 235.266 46.9866C235.27 46.9844 235.277 46.9844 235.281 46.9821C235.29 46.9799 235.297 46.9777 235.304 46.9754C235.308 46.9754 235.311 46.9754 235.313 46.9732C235.315 46.9732 235.317 46.9732 235.319 46.9732C235.328 46.9687 235.34 46.9643 235.348 46.9621C235.36 46.9576 235.369 46.9531 235.377 46.9487C235.38 46.9487 235.38 46.9487 235.382 46.9464C235.384 46.9464 235.386 46.9464 235.389 46.9442C235.393 46.942 235.398 46.9397 235.402 46.9375C235.415 46.9308 235.427 46.9241 235.438 46.9174C235.442 46.9152 235.444 46.9129 235.447 46.9107C235.449 46.9107 235.451 46.9085 235.453 46.9085C235.462 46.9018 235.471 46.8973 235.48 46.8906L235.485 46.8839L248.052 37.7478C248.259 37.596 248.339 37.3259 248.25 37.0849L246.54 32.5291C246.538 32.5246 246.536 32.5179 246.536 32.5135L243.107 23.3706C243.023 23.1497 242.815 23.0023 242.578 23.0001ZM225.467 33.2858H230.27L233.616 43.5804L225.467 33.2858ZM240.016 33.2858H244.819L236.67 43.5804L240.016 33.2858ZM224.465 33.8617L232.107 43.5156L223.259 37.0804L224.465 33.8617ZM245.822 33.8617L247.027 37.0804L238.179 43.5156L245.822 33.8617Z" fill="black"/>
<path d="M129.676 24C125.999 24 123 26.9994 123 30.6761V40.3239C123 44.0006 125.999 47 129.676 47H139.324C143.001 47 146 44.0006 146 40.3239V30.6761C146 26.9994 143.001 24 139.324 24H129.676ZM129.676 25.7692H139.324C142.043 25.7692 144.231 27.9531 144.231 30.6761V40.3239C144.231 43.0434 142.047 45.2308 139.324 45.2308H129.676C126.957 45.2308 124.769 43.0469 124.769 40.3239V30.6761C124.769 27.9566 126.953 25.7692 129.676 25.7692ZM141.135 27.5385C140.402 27.5385 139.808 28.1328 139.808 28.8654C139.808 29.598 140.402 30.1923 141.135 30.1923C141.867 30.1923 142.462 29.598 142.462 28.8654C142.462 28.1328 141.867 27.5385 141.135 27.5385ZM134.5 29.3077C131.089 29.3077 128.308 32.0894 128.308 35.5C128.308 38.9106 131.089 41.6923 134.5 41.6923C137.911 41.6923 140.692 38.9106 140.692 35.5C140.692 32.0894 137.911 29.3077 134.5 29.3077ZM134.5 31.0769C136.953 31.0769 138.923 33.0466 138.923 35.5C138.923 37.9534 136.953 39.9231 134.5 39.9231C132.047 39.9231 130.077 37.9534 130.077 35.5C130.077 33.0466 132.047 31.0769 134.5 31.0769Z" fill="black"/>
<rect x="0.5" y="0.5" width="269" height="69" rx="4.5" stroke="#9747FF" stroke-dasharray="10 5"/>
<defs>
<clipPath id="clip0_4_401">
<rect width="30" height="30" fill="white" transform="translate(170 20)"/>
</clipPath>
</defs>
</svg>
