<svg width="30" height="30" viewBox="0 0 30 30" fill="none" xmlns="http://www.w3.org/2000/svg">
<path d="M24.1543 3.98444C23.8292 3.99878 23.5264 4.09346 23.2598 4.20123C23.01 4.3017 22.0558 4.71097 20.5527 5.35553C19.0484 6.00065 17.0565 6.85584 14.9316 7.76959C10.682 9.5971 5.90421 11.6542 3.45703 12.7071C3.36501 12.7467 3.04392 12.8492 2.70312 13.1153C2.36233 13.3813 2 13.9326 2 14.5469C2 15.0423 2.23607 15.5344 2.5332 15.8282C2.83034 16.122 3.14475 16.2671 3.41406 16.377C4.39123 16.7757 7.42185 18.0159 7.99414 18.2501C8.19555 18.867 9.29249 22.2226 9.54688 23.045C9.71457 23.5877 9.8742 23.9276 10.082 24.1973C10.1859 24.3322 10.3067 24.4504 10.4531 24.543C10.5116 24.58 10.5758 24.6086 10.6406 24.6348L10.6445 24.6368C10.6595 24.6428 10.6723 24.653 10.6875 24.6583C10.7161 24.6683 10.7352 24.6695 10.7734 24.6778C10.9258 24.727 11.0795 24.7579 11.2168 24.7579C11.802 24.7579 12.1602 24.4356 12.1602 24.4356L12.1816 24.42L15.1914 21.8165L18.8418 25.2696C18.8932 25.3423 19.3725 26.0001 20.4297 26.0001C21.0574 26.0001 21.5553 25.6851 21.875 25.3497C22.1947 25.0143 22.3938 24.6619 22.4785 24.2188V24.2169C22.5577 23.7982 25.9219 6.5274 25.9219 6.5274L25.916 6.55084C26.0145 6.10133 26.0403 5.6827 25.9316 5.26959C25.823 4.85648 25.5366 4.46095 25.1816 4.24811C24.8267 4.03531 24.4794 3.97009 24.1543 3.98444ZM23.9668 6.07428C23.962 6.10346 23.9704 6.08879 23.9629 6.12311L23.9609 6.13483L23.959 6.14654C23.959 6.14654 20.6365 23.1964 20.5137 23.8458C20.5227 23.7967 20.4816 23.8942 20.4395 23.9532C20.3799 23.9121 20.2578 23.8594 20.2578 23.8594L20.2383 23.838L15.252 19.1212L11.7266 22.168L12.7754 17.9688C12.7754 17.9688 19.3316 11.1822 19.7266 10.7872C20.0446 10.4712 20.1113 10.361 20.1113 10.252C20.1113 10.106 20.0352 10.0001 19.8652 10.0001C19.7122 10.0001 19.5065 10.1488 19.3965 10.2188C17.9634 11.1324 11.6718 14.7992 8.85156 16.4395C8.40338 16.2561 5.28966 14.9815 4.23438 14.5508C4.24236 14.5473 4.23973 14.5486 4.24805 14.545C6.69587 13.4918 11.4716 11.4347 15.7207 9.60748C17.8452 8.69386 19.8387 7.83802 21.3418 7.19342C22.8218 6.55875 23.8501 6.12195 23.9668 6.07428Z" fill="#212121"/>
</svg>
