<svg width="30" height="30" viewBox="0 0 30 30" fill="none" xmlns="http://www.w3.org/2000/svg">
<g clip-path="url(#clip0_4_396)">
<path d="M14.4287 5.66158C12.8759 5.64693 11.7041 5.72017 10.7226 6.22555C10.3198 6.43063 10.0341 6.6943 9.8144 7.00191C9.69722 7.15572 9.58735 7.29488 9.53608 7.61715C9.50679 7.77096 9.48481 8.0273 9.64594 8.30562C9.80708 8.59127 10.1513 8.7817 10.3857 8.81832C10.5615 8.84029 10.935 8.9941 11.0009 9.08199C11.1547 9.30172 11.2133 9.46285 11.2353 9.55074C11.2573 9.63863 11.2499 9.58004 11.2499 9.58004V9.66793C11.2499 9.66793 11.3085 10.5908 11.2719 11.5429C11.2499 12.0117 11.206 12.5024 11.1328 12.832C11.0595 13.1616 10.8764 13.2421 11.1401 13.0883C10.957 13.1982 11.0229 13.2421 10.7958 13.125C10.5615 13.0151 9.95356 12.5024 9.15522 11.0669C8.35688 9.62398 7.77827 8.87691 7.64643 8.71578C7.59516 8.5693 7.47065 8.269 7.04585 7.93941C6.49653 7.51461 5.93257 7.50728 5.93257 7.50728L5.8813 7.49996H1.78706C1.78706 7.49996 1.55268 7.50728 1.28169 7.56588C1.01069 7.62447 0.622508 7.69039 0.256298 8.14449H0.248974C-0.124562 8.62057 -0.058644 9.05269 -0.0293471 9.31637C0.007274 9.58736 0.0878404 9.79977 0.0878404 9.79977L0.102489 9.84371L0.124462 9.88766C0.124462 9.88766 3.2519 16.56 6.98726 20.625C10.4956 24.4482 14.5605 24.375 14.5605 24.375H16.8676L16.9189 24.3676C16.9189 24.3676 17.6586 24.4043 18.2812 23.7085C18.5961 23.3496 18.6694 23.0127 18.706 22.7636C18.75 22.5073 18.75 22.3022 18.75 22.3022V22.3608C18.75 22.3608 18.7792 21.8774 18.9111 21.372C18.977 21.123 19.0722 20.874 19.1601 20.7348C19.2041 20.6543 19.2041 20.6762 19.2187 20.6543C19.3798 20.7714 19.6435 21.0424 19.9218 21.3867C20.4931 22.0678 21.1376 23.0127 22.0385 23.6645C22.6904 24.1259 23.3056 24.331 23.7744 24.4043C24.0893 24.4555 24.3164 24.4482 24.4702 24.4336L27.6562 24.375H27.6855C27.6855 24.375 28.3447 24.3603 29.0039 23.9428C29.3261 23.7378 29.6997 23.3642 29.8242 22.8295C29.956 22.2949 29.8095 21.7163 29.5019 21.1816C29.6044 21.3647 29.4799 21.123 29.3847 20.9326C29.2895 20.7421 29.143 20.4858 28.9233 20.1635C28.4985 19.5337 27.7954 18.6474 26.6308 17.5195C26.0815 16.9921 25.7299 16.6992 25.5102 16.4941C25.5761 16.3989 25.5834 16.3916 25.8325 16.0986C26.228 15.6372 26.8066 14.956 27.539 13.9379C28.4179 12.7075 29.0551 11.7041 29.4653 10.8691C29.8754 10.0415 30.205 9.35299 29.8388 8.50338C29.6411 8.04195 29.2895 7.86617 29.0332 7.75631C28.7695 7.64644 28.5351 7.6025 28.3154 7.56588C27.8833 7.49996 27.5024 7.49996 27.5024 7.49996L23.789 7.52926C23.6791 7.50728 23.2543 7.42672 22.705 7.77828C22.163 8.11519 22.0385 8.47408 22.0092 8.58394C21.9213 8.70846 21.3061 9.58004 20.4492 11.1035C19.5849 12.6416 18.999 13.059 18.9257 13.0957C18.9038 13.0737 18.9477 13.081 18.8452 13.0224C18.8012 12.9858 18.7573 12.9565 18.7207 12.561C18.6914 12.1655 18.728 11.5429 18.728 10.8105C18.728 9.2358 18.8671 8.41549 18.7866 7.6318C18.75 7.23629 18.5888 6.75289 18.2373 6.43063C17.8857 6.11568 17.5048 5.9985 17.1093 5.89596C16.4868 5.74215 15.6445 5.67623 14.4287 5.66158ZM14.414 7.53658C15.5493 7.55123 16.3476 7.63912 16.6406 7.71236C16.8896 7.77828 16.9262 7.80758 16.9189 7.79293C16.9189 7.80758 16.9189 7.80025 16.9189 7.82223C16.9482 8.13717 16.853 9.14791 16.853 10.8105C16.853 11.4624 16.8017 12.0922 16.853 12.7221C16.9042 13.352 17.1313 14.1211 17.7978 14.5752H17.8051C17.7246 14.5239 18.6474 15.2124 19.5263 14.8974C20.4052 14.5752 21.101 13.7695 22.0898 12.019C22.9541 10.4663 23.5913 9.59469 23.5913 9.59469L23.6499 9.5068L23.6938 9.41891C23.6938 9.41891 23.6791 9.41158 23.6938 9.40426L27.5024 9.37496C27.5024 9.37496 27.7661 9.37496 28.0224 9.41891C28.0297 9.41891 28.0371 9.41891 28.0444 9.41891C28.0078 9.43355 28.0371 9.52877 27.7807 10.0488C27.4511 10.7153 26.8579 11.6674 26.0156 12.8466C25.3198 13.8061 24.7998 14.4287 24.4116 14.8828C24.0234 15.3295 23.7304 15.542 23.54 16.1279C23.4448 16.4135 23.4667 16.8383 23.6059 17.124C23.7377 17.4023 23.8989 17.5561 24.06 17.7099C24.3823 18.0175 24.7631 18.3178 25.3198 18.8671C26.4111 19.9218 27.0263 20.6982 27.3706 21.2109C27.5463 21.4746 27.6489 21.6577 27.7148 21.7895C27.7807 21.9213 27.7368 21.8701 27.8833 22.1191C28.0078 22.3462 27.9858 22.3755 27.9858 22.3608C27.8613 22.434 27.5463 22.5 27.539 22.5L24.353 22.5586L24.2651 22.5805C24.2651 22.5805 24.2724 22.5879 24.0747 22.5586C23.8696 22.5219 23.5473 22.434 23.1372 22.1411C22.6318 21.7822 21.9946 20.9472 21.3647 20.1855C21.0571 19.812 20.7421 19.4458 20.3466 19.1528C19.9511 18.8598 19.3286 18.5888 18.6914 18.8012C18.142 18.977 17.7832 19.3798 17.5561 19.7534C17.3291 20.1342 17.1972 20.5297 17.0947 20.8886C16.9042 21.6137 16.875 22.2656 16.875 22.2656V22.3242C16.875 22.3242 16.875 22.3681 16.8603 22.434C16.8237 22.4487 16.7724 22.4853 16.7431 22.5H14.5019C14.5019 22.5 11.4038 22.6611 8.36421 19.3652C5.11226 15.8129 2.21919 9.87301 1.97749 9.37496H5.74946C5.78608 9.38961 5.91792 9.44088 5.90327 9.43355C5.81538 9.36031 5.94722 9.52144 5.94722 9.52144L6.00581 9.66061L6.10835 9.77779C6.10835 9.77779 6.68696 10.4809 7.5146 11.9751C8.40083 13.5791 9.1479 14.414 9.98286 14.8169C10.8178 15.2197 11.6967 14.934 12.0703 14.7216C12.7661 14.3188 12.8466 13.7548 12.9638 13.2348C13.081 12.7148 13.1176 12.1582 13.1396 11.6162C13.1835 10.5761 13.1249 9.6899 13.1249 9.62398C13.1176 9.60201 13.1176 9.34566 13.0444 9.06734C12.9638 8.7817 12.8173 8.40816 12.539 8.01266C12.4218 7.85152 12.312 7.93209 12.1874 7.8149C12.7075 7.66842 13.2641 7.52193 14.414 7.53658Z" fill="#212121"/>
</g>
<defs>
<clipPath id="clip0_4_396">
<rect width="30" height="30" fill="white"/>
</clipPath>
</defs>
</svg>
