<svg width="30" height="30" viewBox="0 0 30 30" fill="none" xmlns="http://www.w3.org/2000/svg">
<path d="M9.67608 4C5.9994 4 3 6.9994 3 10.6761V20.3239C3 24.0006 5.9994 27 9.67608 27H19.3239C23.0006 27 26 24.0006 26 20.3239V10.6761C26 6.9994 23.0006 4 19.3239 4H9.67608ZM9.67608 5.76923H19.3239C22.0434 5.76923 24.2308 7.95312 24.2308 10.6761V20.3239C24.2308 23.0434 22.0469 25.2308 19.3239 25.2308H9.67608C6.95658 25.2308 4.76923 23.0469 4.76923 20.3239V10.6761C4.76923 7.95658 6.95312 5.76923 9.67608 5.76923ZM21.1346 7.53846C20.402 7.53846 19.8077 8.13281 19.8077 8.86538C19.8077 9.59796 20.402 10.1923 21.1346 10.1923C21.8672 10.1923 22.4615 9.59796 22.4615 8.86538C22.4615 8.13281 21.8672 7.53846 21.1346 7.53846ZM14.5 9.30769C11.0894 9.30769 8.30769 12.0894 8.30769 15.5C8.30769 18.9106 11.0894 21.6923 14.5 21.6923C17.9106 21.6923 20.6923 18.9106 20.6923 15.5C20.6923 12.0894 17.9106 9.30769 14.5 9.30769ZM14.5 11.0769C16.9534 11.0769 18.9231 13.0466 18.9231 15.5C18.9231 17.9534 16.9534 19.9231 14.5 19.9231C12.0466 19.9231 10.0769 17.9534 10.0769 15.5C10.0769 13.0466 12.0466 11.0769 14.5 11.0769Z" fill="black"/>
</svg>
