<svg width="30" height="30" viewBox="0 0 30 30" fill="none" xmlns="http://www.w3.org/2000/svg">
<path d="M14.5 3C7.60754 3 2 8.60755 2 15.5C2 22.3925 7.60754 28 14.5 28C21.3925 28 27 22.3925 27 15.5C27 8.60755 21.3925 3 14.5 3ZM14.5 4.875C20.3791 4.875 25.125 9.62087 25.125 15.5C25.125 20.2908 21.9731 24.3266 17.625 25.6575V22.4604C17.625 21.2666 16.9371 20.2429 15.9429 19.7334C16.9096 19.5485 17.8072 19.1817 18.5612 18.6637C19.3153 18.1456 19.904 17.4912 20.2785 16.7546C20.6531 16.0181 20.8026 15.2207 20.7148 14.4286C20.6269 13.6366 20.3042 12.8727 19.7734 12.2004C20.0507 11.3471 20.3603 9.85042 19.6245 8.67261C18.2058 8.67261 17.2904 9.64505 16.8535 10.2498C16.1066 10.0044 15.3074 9.87713 14.5 9.875C13.6921 9.87572 12.892 10.0017 12.144 10.2461C11.7061 9.64111 10.7914 8.67261 9.37549 8.67261C8.53107 10.0243 9.05307 11.4778 9.33276 12.071C8.7661 12.7404 8.41078 13.5098 8.29726 14.3131C8.18374 15.1164 8.31541 15.9298 8.68097 16.6835C9.04654 17.4372 9.63511 18.1087 10.3962 18.6406C11.1573 19.1724 12.0683 19.5486 13.051 19.7371C12.2347 20.1578 11.6233 20.9213 11.436 21.8477H10.6145C9.80388 21.8477 9.48891 21.5183 9.05078 20.9626C8.61828 20.407 8.15323 20.0337 7.59448 19.8787C7.29323 19.8468 7.09028 20.0759 7.35278 20.2791C8.23966 20.8828 8.30087 21.8709 8.65649 22.5178C8.98024 23.1003 9.64355 23.625 10.3936 23.625H11.375V25.6575C7.02691 24.3266 3.875 20.2908 3.875 15.5C3.875 9.62087 8.62087 4.875 14.5 4.875Z" fill="black"/>
</svg>
