<svg width="30" height="30" viewBox="0 0 30 30" fill="none" xmlns="http://www.w3.org/2000/svg">
<path d="M22.5783 3.0001C22.3283 2.99787 22.1051 3.15635 22.027 3.39519L19.1855 12.1429H11.1007L8.2592 3.39519C8.18331 3.16528 7.97126 3.0068 7.72795 3.0001C7.48465 2.99563 7.2659 3.14296 7.17885 3.37063L3.75476 12.509C3.75252 12.509 3.75252 12.5112 3.75029 12.5135L2.03601 17.0849C1.94673 17.3259 2.02708 17.596 2.23691 17.7478L14.8038 26.8862L14.806 26.8906C14.8083 26.8906 14.8083 26.8906 14.8083 26.8929C14.815 26.8973 14.8239 26.9018 14.8306 26.9062C14.8395 26.9107 14.8462 26.9174 14.8552 26.9219C14.8574 26.9219 14.8574 26.9241 14.8596 26.9241C14.8596 26.9241 14.8619 26.9263 14.8641 26.9263C14.8663 26.9286 14.8685 26.9308 14.873 26.9308C14.8752 26.933 14.8797 26.9353 14.8819 26.9375C14.8931 26.942 14.9065 26.9487 14.9199 26.9531C14.9199 26.9531 14.9199 26.9531 14.9199 26.9554C14.9333 26.9598 14.9467 26.9643 14.9578 26.9688C14.9601 26.9688 14.9601 26.9688 14.9623 26.971C14.9712 26.9732 14.9802 26.9754 14.9913 26.9799C14.9958 26.9799 15.0002 26.9821 15.0069 26.9821C15.0069 26.9844 15.0069 26.9844 15.0069 26.9821C15.0181 26.9866 15.0293 26.9888 15.0404 26.9911C15.056 26.9933 15.0694 26.9955 15.0851 26.9978C15.1074 26.9978 15.1319 27 15.1543 27C15.1766 26.9978 15.1967 26.9978 15.2168 26.9933C15.2257 26.9933 15.2324 26.9933 15.2413 26.9911C15.2413 26.9911 15.2435 26.9911 15.2458 26.9911C15.2502 26.9888 15.2525 26.9888 15.2569 26.9888C15.2592 26.9888 15.2614 26.9866 15.2659 26.9866C15.2703 26.9844 15.277 26.9844 15.2815 26.9821C15.2904 26.9799 15.2971 26.9777 15.3038 26.9754C15.3083 26.9754 15.3105 26.9754 15.3127 26.9732C15.315 26.9732 15.3172 26.9732 15.3194 26.9732C15.3284 26.9688 15.3395 26.9643 15.3485 26.9621C15.3596 26.9576 15.3685 26.9531 15.3775 26.9487C15.3797 26.9487 15.3797 26.9487 15.3819 26.9464C15.3842 26.9464 15.3864 26.9464 15.3886 26.9442C15.3931 26.942 15.3976 26.9397 15.402 26.9375C15.4154 26.9308 15.4266 26.9241 15.4377 26.9174C15.4422 26.9152 15.4444 26.9129 15.4467 26.9107C15.4489 26.9107 15.4511 26.9085 15.4534 26.9085C15.4623 26.9018 15.4712 26.8973 15.4802 26.8906L15.4846 26.8839L28.0515 17.7478C28.2591 17.596 28.3395 17.3259 28.2502 17.0849L26.5404 12.5291C26.5381 12.5246 26.5359 12.5179 26.5359 12.5135L23.1074 3.37063C23.0225 3.14965 22.8149 3.00233 22.5783 3.0001ZM5.4668 13.2858H10.2704L13.6163 23.5804L5.4668 13.2858ZM20.0159 13.2858H24.8194L16.6699 23.5804L20.0159 13.2858ZM4.46457 13.8617L12.1074 23.5156L3.25922 17.0804L4.46457 13.8617ZM25.8216 13.8617L27.027 17.0804L18.1788 23.5156L25.8216 13.8617Z" fill="black"/>
</svg>
