<svg width="770" height="70" viewBox="0 0 770 70" fill="none" xmlns="http://www.w3.org/2000/svg">
<path d="M45.625 23.125H24.375L26.25 44.375L35 46.875L43.75 44.375L45.625 23.125Z" fill="#E65100"/>
<path d="M35 25V44.9375L42 42.9375L43.5625 25H35Z" fill="#FF6D00"/>
<path d="M35 35.625V33.125H40.375L39.9375 40.3125L35 41.9375V39.3125L37.5625 38.4375L37.75 35.625H35ZM40.5625 30.625L40.75 28.125H35V30.625H40.5625Z" fill="white"/>
<path d="M35 39.3125V41.9375L30.0625 40.3125L29.8125 36.875H32.3125L32.4375 38.4375L35 39.3125ZM31.9375 30.625H35V28.125H29.3125L29.75 35.625H35V33.125H32.125L31.9375 30.625Z" fill="#EEEEEE"/>
<path d="M95.625 23.125H74.375L76.25 44.375L85 46.875L93.75 44.375L95.625 23.125Z" fill="#0277BD"/>
<path d="M85 25V44.9375L92 42.9375L93.5625 25H85Z" fill="#039BE5"/>
<path d="M90.6875 28.125H85V30.625H88.0625L87.875 33.125H85V35.625H87.75L87.5625 38.4375L85 39.3125V41.9375L89.9375 40.3125L90.375 33.125L90.6875 28.125Z" fill="white"/>
<path d="M85 28.125V30.625H79.4375L79.25 28.125H85ZM82.125 33.125L82.25 35.625H85V33.125H82.125ZM82.375 36.875H79.875L80.0625 40.3125L85 41.9375V39.3125L82.4375 38.4375L82.375 36.875Z" fill="#EEEEEE"/>
<path d="M123.75 46.25V23.75H146.25V46.25H123.75Z" fill="#F7DF1E"/>
<path d="M138.461 40.5919C138.894 41.2944 139.364 41.9675 140.359 41.9675C141.196 41.9675 141.634 41.5519 141.634 40.9769C141.634 40.2887 141.181 40.0444 140.261 39.6438L139.756 39.4288C138.301 38.8113 137.333 38.0375 137.333 36.4031C137.333 34.8969 138.486 33.7506 140.288 33.7506C141.571 33.7506 142.493 34.195 143.158 35.3587L141.586 36.3631C141.241 35.7456 140.867 35.5025 140.288 35.5025C139.696 35.5025 139.322 35.8756 139.322 36.3631C139.322 36.9656 139.697 37.2094 140.563 37.5825L141.067 37.7975C142.783 38.5281 143.75 39.2744 143.75 40.9519C143.75 42.7594 142.323 43.75 140.406 43.75C138.532 43.75 137.468 42.8094 136.875 41.645L138.461 40.5919ZM131.22 40.6431C131.536 41.2094 132.017 41.645 132.708 41.645C133.369 41.645 133.75 41.3838 133.75 40.3681V33.75H135.833V40.6881C135.833 42.7925 134.613 43.75 132.83 43.75C131.219 43.75 130.057 42.6587 129.583 41.645L131.22 40.6431Z" fill="#000001"/>
<path d="M185 41.25C176.938 41.25 170.625 38.5 170.625 35C170.625 31.5 176.938 28.75 185 28.75C193.062 28.75 199.375 31.5 199.375 35C199.375 38.5 193.062 41.25 185 41.25ZM185 30C177.125 30 171.875 32.5625 171.875 35C171.875 37.4375 177.125 40 185 40C192.875 40 198.125 37.4375 198.125 35C198.125 32.5625 192.875 30 185 30Z" fill="#80DEEA"/>
<path d="M179.437 47.875C178.812 47.875 178.312 47.75 177.812 47.4375C174.75 45.6875 175.562 38.875 179.562 31.875C181.437 28.625 183.75 25.875 186 24.125C188.437 22.25 190.625 21.6875 192.125 22.5625C193.687 23.4375 194.25 25.625 193.875 28.6875C193.5 31.5625 192.25 34.9375 190.375 38.1875C188.5 41.4375 186.187 44.1875 183.937 45.9375C182.312 47.1875 180.75 47.875 179.437 47.875ZM190.562 23.375C189.562 23.375 188.25 23.9375 186.812 25.0625C184.687 26.75 182.5 29.375 180.687 32.5C176.75 39.3125 176.375 45.1875 178.437 46.375C179.5 47 181.25 46.4375 183.187 44.9375C185.312 43.25 187.5 40.625 189.312 37.5C191.125 34.375 192.312 31.1875 192.687 28.5C193 26 192.625 24.25 191.562 23.625C191.25 23.5 190.937 23.375 190.562 23.375Z" fill="#80DEEA"/>
<path d="M190.625 47.875C187.5 47.875 183 44.0625 179.625 38.125C175.562 31.125 174.75 24.3125 177.812 22.5625C180.875 20.8125 186.375 24.875 190.437 31.875C192.312 35.125 193.562 38.5 193.937 41.375C194.375 44.4375 193.75 46.5625 192.187 47.5C191.687 47.75 191.187 47.875 190.625 47.875ZM178.437 23.625C176.375 24.8125 176.75 30.6875 180.687 37.5C184.625 44.3125 189.5 47.5625 191.562 46.375C192.625 45.75 193 44 192.687 41.5C192.312 38.8125 191.125 35.625 189.312 32.5C185.375 25.6875 180.5 22.4375 178.437 23.625Z" fill="#80DEEA"/>
<path d="M185 37.5C186.381 37.5 187.5 36.3807 187.5 35C187.5 33.6193 186.381 32.5 185 32.5C183.619 32.5 182.5 33.6193 182.5 35C182.5 36.3807 183.619 37.5 185 37.5Z" fill="#80DEEA"/>
<path d="M234.992 30.625L231.709 25H221.859L234.992 47.5L248.125 25H238.275L234.992 30.625Z" fill="#81C784"/>
<path d="M238.275 25L234.992 30.625L231.709 25H226.966L234.992 38.75L243.018 25H238.275Z" fill="#455A64"/>
<path d="M285.004 48.3869C284.646 48.3869 284.29 48.2931 283.976 48.1119L280.701 46.1725C280.211 45.8987 280.45 45.8019 280.611 45.7462C281.264 45.5181 281.396 45.4662 282.092 45.0706C282.165 45.0287 282.261 45.0437 282.336 45.0881L284.852 46.5812C284.943 46.6306 285.072 46.6306 285.156 46.5812L294.966 40.9181C295.057 40.8662 295.116 40.7612 295.116 40.6531V29.3325C295.116 29.2194 295.058 29.1187 294.964 29.0625L285.158 23.4037C285.068 23.35 284.947 23.35 284.856 23.4037L275.051 29.0619C274.956 29.1156 274.896 29.2212 274.896 29.3294V40.6506C274.896 40.7587 274.954 40.8619 275.048 40.9131L277.735 42.465C279.194 43.1944 280.085 42.335 280.085 41.4706V30.2975C280.085 30.1381 280.21 30.015 280.37 30.015H281.612C281.767 30.015 281.895 30.1375 281.895 30.2975V41.4762C281.895 43.4212 280.834 44.5387 278.99 44.5387C278.422 44.5387 277.976 44.5387 276.728 43.925L274.154 42.4419C273.518 42.0731 273.125 41.385 273.125 40.6512V29.33C273.125 28.5931 273.518 27.9056 274.154 27.5419L283.975 21.8762C284.596 21.525 285.421 21.525 286.038 21.8762L295.847 27.5444C296.479 27.91 296.875 28.5956 296.875 29.3325V40.6537C296.875 41.3881 296.479 42.0731 295.846 42.4419L286.037 48.1069C285.723 48.2887 285.367 48.3819 285.004 48.3819" fill="#21A366"/>
<path d="M288.035 40.5856C283.743 40.5856 282.843 38.615 282.843 36.9625C282.843 36.8056 282.969 36.68 283.127 36.68H284.394C284.534 36.68 284.653 36.7818 284.674 36.92C284.866 38.2112 285.436 38.8625 288.031 38.8625C290.099 38.8625 290.978 38.3956 290.978 37.2987C290.978 36.6675 290.728 36.1987 287.516 35.8843C284.829 35.6193 283.169 35.0275 283.169 32.8787C283.169 30.8993 284.839 29.7206 287.636 29.7206C290.777 29.7206 292.334 30.8112 292.53 33.1537C292.538 33.235 292.508 33.3131 292.454 33.3725C292.4 33.4287 292.324 33.4631 292.245 33.4631H290.971C290.838 33.4631 290.723 33.37 290.696 33.2418C290.389 31.8837 289.647 31.4493 287.631 31.4493C285.374 31.4493 285.111 32.235 285.111 32.8243C285.111 33.5387 285.421 33.7475 288.466 34.1506C291.481 34.5506 292.913 35.1156 292.913 37.235C292.913 39.3712 291.13 40.5968 288.021 40.5968" fill="#21A366"/>
<path d="M335.029 23.125C334.057 23.1282 333.384 23.2138 332.569 23.3544C330.164 23.7732 329.726 24.6525 329.726 26.2732V28.75H335.351V30H329.512H326.794C325.146 30 323.704 30.7763 323.247 32.6369C322.731 34.7725 322.708 36.11 323.247 38.34C323.657 40.0032 324.559 41.25 326.207 41.25H328.477V38.06C328.477 36.2063 330.156 34.375 332.079 34.375H336.602C338.179 34.375 339.727 33.2113 339.727 31.6394V26.2732C339.727 24.7488 338.627 23.6088 337.091 23.3532C337.129 23.3494 335.993 23.1213 335.029 23.125ZM331.914 25.625C332.427 25.625 332.852 26.0482 332.852 26.5638C332.852 27.0844 332.427 27.5 331.914 27.5C331.391 27.5 330.977 27.085 330.977 26.5638C330.977 26.05 331.391 25.625 331.914 25.625Z" fill="#0277BD"/>
<path d="M334.424 46.875C335.396 46.8719 336.069 46.7862 336.884 46.6456C339.289 46.2269 339.727 45.3475 339.727 43.7269V41.25H334.102V40H339.941H342.66C344.307 40 345.749 39.2238 346.206 37.3631C346.722 35.2275 346.746 33.89 346.206 31.66C345.796 29.9969 344.894 28.75 343.246 28.75H340.976V31.94C340.976 33.7938 339.297 35.625 337.374 35.625H332.851C331.274 35.625 329.726 36.7888 329.726 38.3606V43.7269C329.726 45.2513 330.826 46.3912 332.362 46.6469C332.324 46.6506 333.46 46.8788 334.424 46.875ZM337.539 44.375C337.026 44.375 336.602 43.9519 336.602 43.4363C336.602 42.9156 337.026 42.5 337.539 42.5C338.062 42.5 338.477 42.915 338.477 43.4363C338.477 43.95 338.062 44.375 337.539 44.375Z" fill="#FFC107"/>
<path fill-rule="evenodd" clip-rule="evenodd" d="M384.314 22.0538C384.739 21.8157 385.261 21.8157 385.685 22.0538C387.782 23.2307 394.092 26.7732 396.189 27.9501C396.614 28.1876 396.875 28.6276 396.875 29.1038C396.875 31.4576 396.875 38.542 396.875 40.8957C396.875 41.372 396.614 41.812 396.189 42.0501C394.092 43.227 387.783 46.7695 385.685 47.9463C385.261 48.1845 384.738 48.1845 384.314 47.9463C382.217 46.7695 375.908 43.227 373.81 42.0501C373.386 41.812 373.125 41.3726 373.125 40.8963C373.125 38.5426 373.125 31.4582 373.125 29.1045C373.125 28.6282 373.386 28.1882 373.811 27.9501C375.907 26.7732 382.218 23.2307 384.314 22.0538Z" fill="url(#paint0_linear_4_251)"/>
<path fill-rule="evenodd" clip-rule="evenodd" d="M373.315 41.5026C373.149 41.2801 373.125 41.0688 373.125 40.7844C373.125 38.4444 373.125 31.4007 373.125 29.0601C373.125 28.5863 373.386 28.1488 373.809 27.9126C375.898 26.7426 382.187 23.2207 384.276 22.0501C384.699 21.8132 385.273 21.8182 385.696 22.0551C387.785 23.2251 394.052 26.7169 396.142 27.8869C396.311 27.9819 396.439 28.0963 396.554 28.2469L373.315 41.5026Z" fill="url(#paint1_linear_4_251)"/>
<path fill-rule="evenodd" clip-rule="evenodd" d="M385 26.25C389.829 26.25 393.75 30.1706 393.75 35C393.75 39.8294 389.829 43.75 385 43.75C380.171 43.75 376.25 39.8294 376.25 35C376.25 30.1706 380.171 26.25 385 26.25ZM385 30.625C387.414 30.625 389.375 32.585 389.375 35C389.375 37.4144 387.414 39.375 385 39.375C382.586 39.375 380.625 37.4144 380.625 35C380.625 32.585 382.585 30.625 385 30.625Z" fill="white"/>
<path fill-rule="evenodd" clip-rule="evenodd" d="M396.553 28.2532C396.876 28.555 396.869 29.01 396.869 29.3682C396.869 31.74 396.849 38.4863 396.875 40.8582C396.877 41.1057 396.796 41.3663 396.673 41.5625L384.746 35L396.553 28.2532Z" fill="url(#paint2_linear_4_251)"/>
<g opacity="0.05">
<path fill-rule="evenodd" clip-rule="evenodd" d="M390.625 33.125V34.375H391.875V35.625H390.625V36.875H389.375V35.625H388.125V34.375H389.375V33.125H390.625ZM391.25 32.5H390.625H389.375H388.75V33.125V33.75H388.125H387.5V34.375V35.625V36.25H388.125H388.75V36.875V37.5H389.375H390.625H391.25V36.875V36.25H391.875H392.5V35.625V34.375V33.75H391.875H391.25V33.125V32.5Z" fill="black"/>
<path fill-rule="evenodd" clip-rule="evenodd" d="M395 33.125V34.375H396.25V35.625H395V36.875H393.75V35.625H392.5V34.375H393.75V33.125H395ZM395.625 32.5H395H393.75H393.125V33.125V33.75H392.5H391.875V34.375V35.625V36.25H392.5H393.125V36.875V37.5H393.75H395H395.625V36.875V36.25H396.25H396.875V35.625V34.375V33.75H396.25H395.625V33.125V32.5Z" fill="black"/>
</g>
<g opacity="0.07">
<path fill-rule="evenodd" clip-rule="evenodd" d="M390.625 33.125V34.375H391.875V35.625H390.625V36.875H389.375V35.625H388.125V34.375H389.375V33.125H390.625ZM390.938 32.8125H390.625H389.375H389.062V33.125V34.0625H388.125H387.812V34.375V35.625V35.9375H388.125H389.062V36.875V37.1875H389.375H390.625H390.938V36.875V35.9375H391.875H392.188V35.625V34.375V34.0625H391.875H390.938V33.125V32.8125Z" fill="black"/>
<path fill-rule="evenodd" clip-rule="evenodd" d="M395 33.125V34.375H396.25V35.625H395V36.875H393.75V35.625H392.5V34.375H393.75V33.125H395ZM395.312 32.8125H395H393.75H393.438V33.125V34.0625H392.5H392.188V34.375V35.625V35.9375H392.5H393.438V36.875V37.1875H393.75H395H395.312V36.875V35.9375H396.25H396.562V35.625V34.375V34.0625H396.25H395.312V33.125V32.8125Z" fill="black"/>
</g>
<path fill-rule="evenodd" clip-rule="evenodd" d="M390.625 33.125H389.375V34.375H388.125V35.625H389.375V36.875H390.625V35.625H391.875V34.375H390.625V33.125Z" fill="white"/>
<path fill-rule="evenodd" clip-rule="evenodd" d="M396.25 34.375H395V33.125H393.75V34.375H392.5V35.625H393.75V36.875H395V35.625H396.25V34.375Z" fill="white"/>
<path opacity="0.05" fill-rule="evenodd" clip-rule="evenodd" d="M385 26.25C388.205 26.25 391.001 27.9819 392.526 30.5544L388.73 32.7231C387.961 31.4669 386.579 30.625 385 30.625C382.585 30.625 380.625 32.585 380.625 35C380.625 37.4144 382.586 39.375 385 39.375C386.606 39.375 388.007 38.505 388.768 37.2131L392.601 39.3219C391.094 41.9638 388.256 43.75 385 43.75C380.171 43.75 376.25 39.8294 376.25 35C376.25 30.1706 380.171 26.25 385 26.25ZM385 25.625C379.831 25.625 375.625 29.8306 375.625 35C375.625 40.1694 379.831 44.375 385 44.375C388.354 44.375 391.475 42.5575 393.144 39.6312L393.458 39.08L392.902 38.7738L389.069 36.665L388.537 36.3725L388.229 36.8956C387.556 38.0394 386.319 38.75 385 38.75C382.932 38.75 381.25 37.0675 381.25 35C381.25 32.9325 382.932 31.25 385 31.25C386.312 31.25 387.507 31.9225 388.197 33.0494L388.514 33.5669L389.04 33.2662L392.836 31.0975L393.387 30.7825L393.063 30.2363C391.378 27.3919 388.289 25.625 385 25.625Z" fill="black"/>
<path opacity="0.07" fill-rule="evenodd" clip-rule="evenodd" d="M385 26.25C388.205 26.25 391.001 27.9819 392.526 30.5544L388.73 32.7231C387.961 31.4669 386.579 30.625 385 30.625C382.585 30.625 380.625 32.585 380.625 35C380.625 37.4144 382.586 39.375 385 39.375C386.606 39.375 388.007 38.505 388.768 37.2131L392.601 39.3219C391.094 41.9638 388.256 43.75 385 43.75C380.171 43.75 376.25 39.8294 376.25 35C376.25 30.1706 380.171 26.25 385 26.25ZM385 25.9375C380.003 25.9375 375.938 30.0031 375.938 35C375.938 39.9969 380.003 44.0625 385 44.0625C388.243 44.0625 391.259 42.305 392.872 39.4769L393.029 39.2013L392.751 39.0481L388.919 36.9394L388.653 36.7931L388.499 37.0544C387.769 38.2931 386.429 39.0625 385 39.0625C382.76 39.0625 380.938 37.24 380.938 35C380.938 32.76 382.76 30.9375 385 30.9375C386.422 30.9375 387.716 31.6663 388.464 32.8863L388.622 33.145L388.885 32.9944L392.681 30.8256L392.956 30.6681L392.794 30.395C391.165 27.6456 388.179 25.9375 385 25.9375Z" fill="black"/>
<path d="M446.874 29.7227C446.874 29.2739 446.778 28.8773 446.583 28.537C446.393 28.2022 446.107 27.9216 445.724 27.6998C442.562 25.8767 439.398 24.0592 436.237 22.2342C435.385 21.7423 434.559 21.7603 433.713 22.2593C432.454 23.0014 426.153 26.6113 424.276 27.6988C423.503 28.1465 423.126 28.8316 423.126 29.7219C423.125 33.3882 423.126 37.0546 423.125 40.721C423.125 41.1599 423.217 41.5489 423.403 41.8841C423.593 42.2289 423.883 42.5172 424.275 42.744C426.153 43.8315 432.454 47.4411 433.712 48.1835C434.559 48.6828 435.385 48.7006 436.237 48.2086C439.398 46.3835 442.563 44.566 445.725 42.7429C446.117 42.5162 446.407 42.2277 446.597 41.8832C446.783 41.5479 446.875 41.159 446.875 40.7199C446.875 40.7199 446.875 33.3892 446.874 29.7227Z" fill="#A179DC"/>
<path d="M435.036 35.1857L423.403 41.8841C423.593 42.2289 423.883 42.5172 424.275 42.744C426.152 43.8315 432.454 47.4411 433.712 48.1835C434.558 48.6828 435.385 48.7006 436.237 48.2086C439.398 46.3835 442.563 44.566 445.725 42.7429C446.117 42.5162 446.407 42.2277 446.597 41.8832L435.036 35.1857Z" fill="#280068"/>
<path d="M446.874 29.7227C446.874 29.2739 446.778 28.8773 446.584 28.537L435.036 35.1858L446.597 41.8832C446.783 41.5479 446.875 41.159 446.875 40.7199C446.875 40.7199 446.875 33.3892 446.874 29.7227Z" fill="#390091"/>
<path d="M441.886 32.6815V33.9336H443.138V32.6815H443.764V33.9336H445.016V34.5596H443.764V35.8116H445.016V36.4376H443.764V37.6897H443.138V36.4376H441.886V37.6897H441.26V36.4376H440.008V35.8116H441.26V34.5596H440.008V33.9336H441.26V32.6815H441.886ZM443.138 34.5595H441.886V35.8116H443.138V34.5595Z" fill="white"/>
<path d="M435.062 26.3935C438.328 26.3935 441.179 28.1671 442.706 30.8034L442.691 30.778L438.849 32.9904C438.092 31.7087 436.704 30.8436 435.112 30.8258L435.062 30.8255C432.634 30.8255 430.666 32.7937 430.666 35.2213C430.665 35.9865 430.865 36.7385 431.246 37.4023C432.003 38.7251 433.428 39.6172 435.062 39.6172C436.706 39.6172 438.139 38.7137 438.892 37.3768L438.874 37.4089L442.711 39.6315C441.2 42.2454 438.388 44.0135 435.16 44.0487L435.062 44.0493C431.786 44.0493 428.926 42.2648 427.403 39.6145C426.659 38.3207 426.234 36.8208 426.234 35.2213C426.234 30.3459 430.186 26.3934 435.062 26.3934L435.062 26.3935Z" fill="white"/>
<path d="M492.217 46.5194L490.228 44.5306L488.903 45.8563L490.891 47.845C491.258 48.2113 491.851 48.2113 492.217 47.845C492.583 47.4788 492.583 46.8856 492.217 46.5194ZM494.092 35.2694L492.103 33.2806L490.778 34.6063L492.766 36.595C493.133 36.9613 493.726 36.9613 494.092 36.595C494.458 36.2288 494.458 35.6356 494.092 35.2694ZM477.927 46.5194L479.916 44.5306L481.241 45.8563L479.253 47.845C478.886 48.2113 478.293 48.2113 477.927 47.845C477.561 47.4788 477.561 46.8856 477.927 46.5194ZM475.896 35.2694L477.884 33.2806L479.21 34.6063L477.221 36.595C476.855 36.9613 476.261 36.9613 475.896 36.595C475.53 36.2288 475.529 35.6356 475.896 35.2694Z" fill="#FFCC80"/>
<path d="M493.75 25C493.75 23.7919 493.032 23.125 491.731 23.125C490.429 23.125 489.375 24.7294 489.375 25.9375C489.375 26.5625 490.577 26.875 491.25 26.875C492.551 26.875 493.75 26.2081 493.75 25ZM476.25 25C476.25 23.7919 476.968 23.125 478.269 23.125C479.571 23.125 480.625 24.7294 480.625 25.9375C480.625 26.5625 479.423 26.875 478.75 26.875C477.449 26.875 476.25 26.2081 476.25 25Z" fill="#4DD0E1"/>
<path d="M491.875 24.375C491.709 24.375 491.55 24.4408 491.433 24.5581C491.316 24.6753 491.25 24.8342 491.25 25C491.25 25.1658 491.316 25.3247 491.433 25.4419C491.55 25.5592 491.709 25.625 491.875 25.625C492.041 25.625 492.2 25.5592 492.317 25.4419C492.434 25.3247 492.5 25.1658 492.5 25C492.5 24.8342 492.434 24.6753 492.317 24.5581C492.2 24.4408 492.041 24.375 491.875 24.375ZM478.125 24.375C477.959 24.375 477.8 24.4408 477.683 24.5581C477.566 24.6753 477.5 24.8342 477.5 25C477.5 25.1658 477.566 25.3247 477.683 25.4419C477.8 25.5592 477.959 25.625 478.125 25.625C478.291 25.625 478.45 25.5592 478.567 25.4419C478.684 25.3247 478.75 25.1658 478.75 25C478.75 24.8342 478.684 24.6753 478.567 24.5581C478.45 24.4408 478.291 24.375 478.125 24.375Z" fill="#424242"/>
<path d="M493.125 41.25C493.125 44.2338 491.113 47.5 484.806 47.5C479.73 47.5 476.875 44.2338 476.875 41.25C476.875 38.125 477.5 37.6212 477.5 35C477.5 32.07 477.5 30.625 477.5 28.75C477.5 25.7662 479.423 21.875 484.806 21.875C490.19 21.875 492.5 24.3694 492.5 28.125C492.5 30 492.352 31.5331 492.5 34.375C492.616 36.6013 493.125 39.375 493.125 41.25Z" fill="#4DD0E1"/>
<path d="M488.125 23.75C487.462 23.75 486.826 24.0134 486.357 24.4822C485.888 24.9511 485.625 25.587 485.625 26.25C485.625 26.913 485.888 27.5489 486.357 28.0178C486.826 28.4866 487.462 28.75 488.125 28.75C488.788 28.75 489.424 28.4866 489.893 28.0178C490.362 27.5489 490.625 26.913 490.625 26.25C490.625 25.587 490.362 24.9511 489.893 24.4822C489.424 24.0134 488.788 23.75 488.125 23.75ZM481.875 23.75C481.212 23.75 480.576 24.0134 480.107 24.4822C479.638 24.9511 479.375 25.587 479.375 26.25C479.375 26.913 479.638 27.5489 480.107 28.0178C480.576 28.4866 481.212 28.75 481.875 28.75C482.538 28.75 483.174 28.4866 483.643 28.0178C484.112 27.5489 484.375 26.913 484.375 26.25C484.375 25.587 484.112 24.9511 483.643 24.4822C483.174 24.0134 482.538 23.75 481.875 23.75Z" fill="#F5F5F5"/>
<path d="M485 32.5C485 32.845 485.28 33.125 485.625 33.125C485.97 33.125 486.25 32.845 486.25 32.5V30.625H485V32.5ZM483.75 32.5C483.75 32.845 484.03 33.125 484.375 33.125C484.72 33.125 485 32.845 485 32.5V30.625H483.75V32.5Z" fill="#EEEEEE"/>
<path d="M486.562 31.25C486.305 31.25 486.154 31.1969 485.931 31.1219C485.321 30.9169 484.668 30.9181 484.058 31.1231C483.836 31.1975 483.694 31.25 483.438 31.25C482.604 31.25 482.5 30.625 482.5 30.3125C482.5 29.375 483.438 28.75 484.375 28.75C484.897 28.75 485.103 28.75 485.625 28.75C486.562 28.75 487.5 29.375 487.5 30.3125C487.5 30.625 487.396 31.25 486.562 31.25Z" fill="#FFCC80"/>
<path d="M486.875 25.625C486.709 25.625 486.55 25.6908 486.433 25.8081C486.316 25.9253 486.25 26.0842 486.25 26.25C486.25 26.4158 486.316 26.5747 486.433 26.6919C486.55 26.8092 486.709 26.875 486.875 26.875C487.041 26.875 487.2 26.8092 487.317 26.6919C487.434 26.5747 487.5 26.4158 487.5 26.25C487.5 26.0842 487.434 25.9253 487.317 25.8081C487.2 25.6908 487.041 25.625 486.875 25.625ZM480.625 25.625C480.459 25.625 480.3 25.6908 480.183 25.8081C480.066 25.9253 480 26.0842 480 26.25C480 26.4158 480.066 26.5747 480.183 26.6919C480.3 26.8092 480.459 26.875 480.625 26.875C480.791 26.875 480.95 26.8092 481.067 26.6919C481.184 26.5747 481.25 26.4158 481.25 26.25C481.25 26.0842 481.184 25.9253 481.067 25.8081C480.95 25.6908 480.791 25.625 480.625 25.625ZM485 28.125C484.668 28.125 484.351 28.1908 484.116 28.3081C483.882 28.4253 483.75 28.5842 483.75 28.75C483.75 28.9158 483.882 29.0747 484.116 29.1919C484.351 29.3092 484.668 29.375 485 29.375C485.332 29.375 485.649 29.3092 485.884 29.1919C486.118 29.0747 486.25 28.9158 486.25 28.75C486.25 28.5842 486.118 28.4253 485.884 28.3081C485.649 28.1908 485.332 28.125 485 28.125Z" fill="#424242"/>
<path d="M534.781 35.5613C534.157 34.5556 533.705 33.7219 533.078 32.1519C532.018 29.5 539.525 27.1038 536.481 22.4994C537.801 25.68 531.746 27.6463 531.183 30.295C530.669 32.7313 534.778 35.5613 534.781 35.5613Z" fill="#F44336"/>
<path d="M534.924 30.7938C534.804 32.3663 536.317 33.2044 536.361 34.3531C536.396 35.2881 535.456 36.0675 535.456 36.0675C535.456 36.0675 537.161 35.7325 537.693 34.3063C538.284 32.7225 536.547 31.6381 536.726 30.37C536.893 29.1588 540.495 26.9056 540.495 26.9056C540.495 26.9056 535.194 27.2569 534.924 30.7938Z" fill="#F44336"/>
<path d="M540.053 35.6594C541.149 35.4131 542.073 36.1113 542.073 36.9156C542.073 38.7288 539.56 40.4425 539.56 40.4425C539.56 40.4425 543.451 39.9788 543.451 37.0019C543.451 35.0331 541.54 34.5413 540.053 35.6594ZM538.206 37.1219C538.206 37.1219 539.419 36.2575 539.742 35.9331C536.765 36.565 529.968 36.65 529.968 36.1013C529.968 35.5956 532.16 35.0775 532.16 35.0775C532.16 35.0775 527.302 35.0075 527.302 36.4406C527.302 37.9344 533.661 38.0413 538.206 37.1219Z" fill="#1565C0"/>
<path d="M537.459 38.4818C534.641 39.4187 529.451 39.1193 530.988 37.8612C530.239 37.8612 529.129 38.4631 529.129 39.0418C529.129 40.2025 534.743 41.0987 538.898 39.3993L537.459 38.4818Z" fill="#1565C0"/>
<path d="M531.679 40.4619C530.656 40.4619 529.994 41.1207 529.994 41.6007C529.994 43.095 536.094 43.2457 538.511 41.7288L536.975 40.7088C535.169 41.5025 530.634 41.6119 531.679 40.4619Z" fill="#1565C0"/>
<path d="M542.676 42.8951C542.676 42.3101 542.016 42.0344 541.78 41.9026C543.173 45.2607 527.832 45.0001 527.832 43.0176C527.832 42.5669 528.961 42.1257 530.005 42.3344L529.118 41.8101C527.038 41.4838 525.625 42.3982 525.625 43.1357C525.625 46.5751 542.676 46.4094 542.676 42.8951Z" fill="#1565C0"/>
<path d="M544.375 44.1276C541.784 46.6869 535.213 47.6194 528.606 46.0382C535.213 48.8526 544.344 47.2676 544.375 44.1276Z" fill="#1565C0"/>
<g clip-path="url(#clip0_4_251)">
<path d="M585 43.0625C576.832 43.0625 570.188 39.4456 570.188 35C570.188 30.5544 576.832 26.9375 585 26.9375C593.168 26.9375 599.812 30.5544 599.812 35C599.812 39.4456 593.168 43.0625 585 43.0625Z" fill="#DCD5F2"/>
<path d="M585 27.125C593.064 27.125 599.625 30.6579 599.625 35C599.625 39.3421 593.064 42.875 585 42.875C576.936 42.875 570.375 39.3421 570.375 35C570.375 30.6579 576.936 27.125 585 27.125ZM585 26.75C576.716 26.75 570 30.4438 570 35C570 39.5562 576.716 43.25 585 43.25C593.284 43.25 600 39.5562 600 35C600 30.4438 593.284 26.75 585 26.75Z" fill="#8B75A1"/>
<path d="M579.417 32.75C580.064 32.75 580.622 32.9833 580.948 33.3898C581.229 33.74 581.316 34.2039 581.199 34.7311C580.884 36.1528 580.273 36.5 578.089 36.5H576.536L577.192 32.75H579.417ZM579.417 32H576.562L575.25 39.5H576L576.396 37.25H578.089C580.288 37.25 581.484 36.9106 581.931 34.8935C582.316 33.161 581.038 32 579.417 32ZM592.917 32.75C593.564 32.75 594.122 32.9833 594.448 33.3898C594.729 33.74 594.816 34.2039 594.699 34.7311C594.384 36.1528 593.773 36.5 591.589 36.5H590.036L590.692 32.75H592.917ZM592.917 32H590.062L588.75 39.5H589.5L589.896 37.25H591.589C593.788 37.25 594.984 36.9106 595.431 34.8935C595.816 33.161 594.538 32 592.917 32Z" fill="#36404D"/>
<path d="M588.402 32.4545C588.072 32.1305 587.491 32 586.625 32H584.549L585 29.75H584.213L582.75 37.25H583.496L584.392 32.75H584.549H586.626C587.502 32.75 587.786 32.9 587.876 32.9889C588.005 33.1156 588.035 33.4486 587.958 33.875L587.295 37.25H588.085L588.695 34.0137C588.825 33.2982 588.726 32.7733 588.402 32.4545Z" fill="#36404D"/>
</g>
<path d="M623.75 26.25C623.75 24.8694 624.869 23.75 626.25 23.75H643.75C645.131 23.75 646.25 24.8694 646.25 26.25V43.75C646.25 45.1306 645.131 46.25 643.75 46.25H626.25C624.869 46.25 623.75 45.1306 623.75 43.75V26.25Z" fill="#03A9F4"/>
<path d="M632.51 31.9838H631.259V34.755H632.492C632.834 34.755 633.098 34.6431 633.286 34.4194C633.473 34.1956 633.566 33.87 633.566 33.4425C633.566 32.9988 633.471 32.6463 633.279 32.3838C633.088 32.1213 632.831 31.9881 632.51 31.9838Z" fill="#020F16"/>
<path d="M625.625 25.625V44.375H644.375V25.625H625.625ZM634.603 35.4931C634.087 35.9981 633.371 36.25 632.455 36.25H631.259V39.375H629.464V30.4881H632.492C633.371 30.4881 634.072 30.7613 634.594 31.3063C635.117 31.8513 635.379 32.5594 635.379 33.43C635.379 34.3006 635.12 34.9881 634.603 35.4931ZM640.426 38.96C639.983 39.3181 639.401 39.4969 638.681 39.4969C638.196 39.4969 637.769 39.4025 637.399 39.2131C637.029 39.0237 636.738 38.76 636.529 38.4225C636.319 38.085 636.214 37.7206 636.214 37.33H637.856C637.865 37.6306 637.934 37.8569 638.067 38.0075C638.199 38.1581 638.416 38.2331 638.717 38.2331C639.181 38.2331 639.412 38.0237 639.412 37.6044C639.412 37.4581 639.342 37.3225 639.202 37.1987C639.061 37.075 638.75 36.9075 638.266 36.6956C637.554 36.4069 637.064 36.1081 636.797 35.7981C636.531 35.4881 636.398 35.1044 636.398 34.6444C636.398 34.0662 636.606 33.5894 637.023 33.2131C637.44 32.8369 637.993 32.6488 638.68 32.6488C639.404 32.6488 639.984 32.8362 640.419 33.21C640.855 33.5837 641.072 34.0869 641.072 34.7175H639.345C639.345 34.1806 639.122 33.9119 638.674 33.9119C638.491 33.9119 638.341 33.9687 638.222 34.0825C638.103 34.1962 638.045 34.3556 638.045 34.5588C638.045 34.705 638.11 34.8344 638.241 34.9462C638.371 35.0581 638.677 35.2181 639.162 35.4256C639.867 35.6862 640.364 35.9762 640.655 36.2956C640.946 36.615 641.091 37.0294 641.091 37.5375C641.091 38.1281 640.869 38.6019 640.426 38.96Z" fill="#020F16"/>
<path d="M686.25 30.625H681.25C678.834 30.625 676.875 28.6662 676.875 26.25C676.875 23.8338 678.834 21.875 681.25 21.875H686.25V30.625Z" fill="url(#paint3_linear_4_251)"/>
<path d="M685.625 39.375H681.25C678.834 39.375 676.875 37.4162 676.875 35C676.875 32.5838 678.834 30.625 681.25 30.625H685.625V39.375Z" fill="url(#paint4_linear_4_251)"/>
<path d="M681.25 48.125C678.834 48.125 676.875 46.1662 676.875 43.75C676.875 41.3338 678.834 39.375 681.25 39.375H685.625V43.75C685.625 46.1662 683.666 48.125 681.25 48.125Z" fill="url(#paint5_linear_4_251)"/>
<path d="M690 30.625H685.625V21.875H690C692.416 21.875 694.375 23.8338 694.375 26.25C694.375 28.6662 692.416 30.625 690 30.625Z" fill="url(#paint6_linear_4_251)"/>
<path d="M690 39.375C692.416 39.375 694.375 37.4162 694.375 35C694.375 32.5838 692.416 30.625 690 30.625C687.584 30.625 685.625 32.5838 685.625 35C685.625 37.4162 687.584 39.375 690 39.375Z" fill="url(#paint7_linear_4_251)"/>
<g clip-path="url(#clip1_4_251)">
<path d="M715 31H717.667V45.6667H720.333V28.3334H715V31Z" fill="#C74343"/>
<path d="M717.667 27H721.667V45.6667H724.333V24.3334H717.667V27ZM729.667 35C729.667 30.588 733.255 27 737.667 27C742.079 27 745.667 30.588 745.667 35H748.333C748.333 29.1187 743.548 24.3334 737.667 24.3334C731.785 24.3334 727 29.1187 727 35C727 40.8814 731.785 45.6667 737.667 45.6667H755V43H737.667C733.255 43 729.667 39.412 729.667 35Z" fill="#C74343"/>
<path d="M737.667 37.6666C736.196 37.6666 735 36.4706 735 35C735 33.5293 736.196 32.3333 737.667 32.3333C739.137 32.3333 740.333 33.5293 740.333 35H743C743 32.0586 740.608 29.6666 737.667 29.6666C734.725 29.6666 732.333 32.0586 732.333 35C732.333 37.9413 734.725 40.3333 737.667 40.3333H755V37.6666H737.667Z" fill="#C74343"/>
</g>
<rect x="0.5" y="0.5" width="769" height="69" rx="4.5" stroke="#9747FF" stroke-dasharray="10 5"/>
<defs>
<linearGradient id="paint0_linear_4_251" x1="373.125" y1="35.0001" x2="396.875" y2="35.0001" gradientUnits="userSpaceOnUse">
<stop offset="0.002" stop-color="#427FDB"/>
<stop offset="0.397" stop-color="#2668CB"/>
<stop offset="0.763" stop-color="#1358BF"/>
<stop offset="1" stop-color="#0C52BB"/>
</linearGradient>
<linearGradient id="paint1_linear_4_251" x1="373.125" y1="31.6888" x2="396.554" y2="31.6888" gradientUnits="userSpaceOnUse">
<stop stop-color="#32BDEF"/>
<stop offset="1" stop-color="#1EA2E4"/>
</linearGradient>
<linearGradient id="paint2_linear_4_251" x1="384.746" y1="34.9075" x2="396.875" y2="34.9075" gradientUnits="userSpaceOnUse">
<stop stop-color="#2AA4F4"/>
<stop offset="1" stop-color="#007AD9"/>
</linearGradient>
<linearGradient id="paint3_linear_4_251" x1="680.193" y1="20.6881" x2="684.389" y2="32.2163" gradientUnits="userSpaceOnUse">
<stop stop-color="#F44F5A"/>
<stop offset="0.443" stop-color="#EE3D4A"/>
<stop offset="1" stop-color="#E52030"/>
</linearGradient>
<linearGradient id="paint4_linear_4_251" x1="679.775" y1="29.1475" x2="683.946" y2="40.6069" gradientUnits="userSpaceOnUse">
<stop stop-color="#AE4CD5"/>
<stop offset="1" stop-color="#9331BF"/>
</linearGradient>
<linearGradient id="paint5_linear_4_251" x1="679.256" y1="36.4731" x2="683.638" y2="48.5106" gradientUnits="userSpaceOnUse">
<stop stop-color="#33C481"/>
<stop offset="1" stop-color="#21A366"/>
</linearGradient>
<linearGradient id="paint6_linear_4_251" x1="687.186" y1="20.32" x2="691.324" y2="31.6888" gradientUnits="userSpaceOnUse">
<stop stop-color="#F09CA2"/>
<stop offset="1" stop-color="#EB6773"/>
</linearGradient>
<linearGradient id="paint7_linear_4_251" x1="687.946" y1="29.3575" x2="691.786" y2="39.9062" gradientUnits="userSpaceOnUse">
<stop stop-color="#32BDEF"/>
<stop offset="1" stop-color="#1EA2E4"/>
</linearGradient>
<clipPath id="clip0_4_251">
<rect width="30" height="30" fill="white" transform="translate(570 20)"/>
</clipPath>
<clipPath id="clip1_4_251">
<rect width="30" height="30" fill="white" transform="translate(720 20)"/>
</clipPath>
</defs>
</svg>
