<svg width="30" height="30" viewBox="0 0 30 30" fill="none" xmlns="http://www.w3.org/2000/svg">
<path fill-rule="evenodd" clip-rule="evenodd" d="M14.3144 2.05384C14.7387 1.81571 15.2613 1.81571 15.685 2.05384C17.7819 3.23071 24.0919 6.77321 26.1894 7.95009C26.6138 8.18759 26.875 8.62759 26.875 9.10384C26.875 11.4576 26.875 18.542 26.875 20.8957C26.875 21.372 26.6138 21.812 26.1894 22.0501C24.0925 23.227 17.7825 26.7695 15.685 27.9463C15.2606 28.1845 14.7381 28.1845 14.3144 27.9463C12.2175 26.7695 5.9075 23.227 3.81 22.0501C3.38625 21.812 3.125 21.3726 3.125 20.8963C3.125 18.5426 3.125 11.4582 3.125 9.10446C3.125 8.62821 3.38625 8.18821 3.81063 7.95009C5.90688 6.77321 12.2181 3.23071 14.3144 2.05384Z" fill="url(#paint0_linear_4_243)"/>
<path fill-rule="evenodd" clip-rule="evenodd" d="M3.315 21.5026C3.14875 21.2801 3.125 21.0688 3.125 20.7844C3.125 18.4444 3.125 11.4007 3.125 9.06005C3.125 8.5863 3.38562 8.1488 3.80875 7.91255C5.89812 6.74255 12.1869 3.22068 14.2762 2.05005C14.6994 1.81318 15.2725 1.81818 15.6956 2.05505C17.785 3.22505 24.0525 6.71693 26.1419 7.88693C26.3106 7.98193 26.4394 8.0963 26.5544 8.24693L3.315 21.5026Z" fill="url(#paint1_linear_4_243)"/>
<path fill-rule="evenodd" clip-rule="evenodd" d="M15 6.25C19.8294 6.25 23.75 10.1706 23.75 15C23.75 19.8294 19.8294 23.75 15 23.75C10.1706 23.75 6.25 19.8294 6.25 15C6.25 10.1706 10.1706 6.25 15 6.25ZM15 10.625C17.4144 10.625 19.375 12.585 19.375 15C19.375 17.4144 17.4144 19.375 15 19.375C12.5856 19.375 10.625 17.4144 10.625 15C10.625 12.585 12.585 10.625 15 10.625Z" fill="white"/>
<path fill-rule="evenodd" clip-rule="evenodd" d="M26.5531 8.25317C26.8756 8.55505 26.8694 9.01005 26.8694 9.36817C26.8694 11.74 26.8494 18.4863 26.875 20.8582C26.8775 21.1057 26.7956 21.3663 26.6731 21.5625L14.7456 15L26.5531 8.25317Z" fill="url(#paint2_linear_4_243)"/>
<g opacity="0.05">
<path fill-rule="evenodd" clip-rule="evenodd" d="M20.625 13.125V14.375H21.875V15.625H20.625V16.875H19.375V15.625H18.125V14.375H19.375V13.125H20.625ZM21.25 12.5H20.625H19.375H18.75V13.125V13.75H18.125H17.5V14.375V15.625V16.25H18.125H18.75V16.875V17.5H19.375H20.625H21.25V16.875V16.25H21.875H22.5V15.625V14.375V13.75H21.875H21.25V13.125V12.5Z" fill="black"/>
<path fill-rule="evenodd" clip-rule="evenodd" d="M25 13.125V14.375H26.25V15.625H25V16.875H23.75V15.625H22.5V14.375H23.75V13.125H25ZM25.625 12.5H25H23.75H23.125V13.125V13.75H22.5H21.875V14.375V15.625V16.25H22.5H23.125V16.875V17.5H23.75H25H25.625V16.875V16.25H26.25H26.875V15.625V14.375V13.75H26.25H25.625V13.125V12.5Z" fill="black"/>
</g>
<g opacity="0.07">
<path fill-rule="evenodd" clip-rule="evenodd" d="M20.625 13.125V14.375H21.875V15.625H20.625V16.875H19.375V15.625H18.125V14.375H19.375V13.125H20.625ZM20.9375 12.8125H20.625H19.375H19.0625V13.125V14.0625H18.125H17.8125V14.375V15.625V15.9375H18.125H19.0625V16.875V17.1875H19.375H20.625H20.9375V16.875V15.9375H21.875H22.1875V15.625V14.375V14.0625H21.875H20.9375V13.125V12.8125Z" fill="black"/>
<path fill-rule="evenodd" clip-rule="evenodd" d="M25 13.125V14.375H26.25V15.625H25V16.875H23.75V15.625H22.5V14.375H23.75V13.125H25ZM25.3125 12.8125H25H23.75H23.4375V13.125V14.0625H22.5H22.1875V14.375V15.625V15.9375H22.5H23.4375V16.875V17.1875H23.75H25H25.3125V16.875V15.9375H26.25H26.5625V15.625V14.375V14.0625H26.25H25.3125V13.125V12.8125Z" fill="black"/>
</g>
<path fill-rule="evenodd" clip-rule="evenodd" d="M20.625 13.125H19.375V14.375H18.125V15.625H19.375V16.875H20.625V15.625H21.875V14.375H20.625V13.125Z" fill="white"/>
<path fill-rule="evenodd" clip-rule="evenodd" d="M26.25 14.375H25V13.125H23.75V14.375H22.5V15.625H23.75V16.875H25V15.625H26.25V14.375Z" fill="white"/>
<path opacity="0.05" fill-rule="evenodd" clip-rule="evenodd" d="M15 6.25C18.205 6.25 21.0013 7.98187 22.5256 10.5544L18.73 12.7231C17.9606 11.4669 16.5794 10.625 15 10.625C12.585 10.625 10.625 12.585 10.625 15C10.625 17.4144 12.5856 19.375 15 19.375C16.6062 19.375 18.0075 18.505 18.7681 17.2131L22.6006 19.3219C21.0938 21.9638 18.2563 23.75 15 23.75C10.1706 23.75 6.25 19.8294 6.25 15C6.25 10.1706 10.1706 6.25 15 6.25ZM15 5.625C9.83063 5.625 5.625 9.83063 5.625 15C5.625 20.1694 9.83063 24.375 15 24.375C18.3544 24.375 21.475 22.5575 23.1437 19.6313L23.4581 19.08L22.9019 18.7738L19.0694 16.665L18.5375 16.3725L18.2294 16.8956C17.5562 18.0394 16.3188 18.75 15 18.75C12.9325 18.75 11.25 17.0675 11.25 15C11.25 12.9325 12.9325 11.25 15 11.25C16.3119 11.25 17.5069 11.9225 18.1969 13.0494L18.5138 13.5669L19.04 13.2662L22.8356 11.0975L23.3869 10.7825L23.0631 10.2362C21.3781 7.39188 18.2887 5.625 15 5.625Z" fill="black"/>
<path opacity="0.07" fill-rule="evenodd" clip-rule="evenodd" d="M15 6.25C18.205 6.25 21.0013 7.98187 22.5256 10.5544L18.73 12.7231C17.9606 11.4669 16.5794 10.625 15 10.625C12.585 10.625 10.625 12.585 10.625 15C10.625 17.4144 12.5856 19.375 15 19.375C16.6062 19.375 18.0075 18.505 18.7681 17.2131L22.6006 19.3219C21.0938 21.9638 18.2563 23.75 15 23.75C10.1706 23.75 6.25 19.8294 6.25 15C6.25 10.1706 10.1706 6.25 15 6.25ZM15 5.9375C10.0031 5.9375 5.9375 10.0031 5.9375 15C5.9375 19.9969 10.0031 24.0625 15 24.0625C18.2425 24.0625 21.2588 22.305 22.8719 19.4769L23.0294 19.2013L22.7513 19.0481L18.9188 16.9394L18.6531 16.7931L18.4994 17.0544C17.7694 18.2931 16.4288 19.0625 15 19.0625C12.76 19.0625 10.9375 17.24 10.9375 15C10.9375 12.76 12.76 10.9375 15 10.9375C16.4219 10.9375 17.7162 11.6663 18.4637 12.8863L18.6219 13.145L18.885 12.9944L22.6806 10.8256L22.9562 10.6681L22.7944 10.395C21.165 7.64562 18.1788 5.9375 15 5.9375Z" fill="black"/>
<defs>
<linearGradient id="paint0_linear_4_243" x1="3.125" y1="15.0001" x2="26.875" y2="15.0001" gradientUnits="userSpaceOnUse">
<stop offset="0.002" stop-color="#427FDB"/>
<stop offset="0.397" stop-color="#2668CB"/>
<stop offset="0.763" stop-color="#1358BF"/>
<stop offset="1" stop-color="#0C52BB"/>
</linearGradient>
<linearGradient id="paint1_linear_4_243" x1="3.125" y1="11.6888" x2="26.5544" y2="11.6888" gradientUnits="userSpaceOnUse">
<stop stop-color="#32BDEF"/>
<stop offset="1" stop-color="#1EA2E4"/>
</linearGradient>
<linearGradient id="paint2_linear_4_243" x1="14.7456" y1="14.9075" x2="26.875" y2="14.9075" gradientUnits="userSpaceOnUse">
<stop stop-color="#2AA4F4"/>
<stop offset="1" stop-color="#007AD9"/>
</linearGradient>
</defs>
</svg>
