<svg width="30" height="30" viewBox="0 0 30 30" fill="none" xmlns="http://www.w3.org/2000/svg">
<path d="M22.2169 26.5194L20.2282 24.5306L18.9025 25.8563L20.8913 27.845C21.2575 28.2113 21.8513 28.2113 22.2169 27.845C22.5825 27.4788 22.5832 26.8856 22.2169 26.5194ZM24.0919 15.2694L22.1032 13.2806L20.7775 14.6063L22.7663 16.595C23.1325 16.9613 23.7263 16.9613 24.0919 16.595C24.4575 16.2288 24.4582 15.6356 24.0919 15.2694ZM7.92692 26.5194L9.91567 24.5306L11.2413 25.8563L9.25254 27.845C8.88629 28.2113 8.29254 28.2113 7.92692 27.845C7.56129 27.4788 7.56067 26.8856 7.92692 26.5194ZM5.89567 15.2694L7.88442 13.2806L9.21004 14.6063L7.22129 16.595C6.85504 16.9613 6.26129 16.9613 5.89567 16.595C5.53004 16.2288 5.52942 15.6356 5.89567 15.2694Z" fill="#FFCC80"/>
<path d="M23.75 5C23.75 3.79188 23.0319 3.125 21.7306 3.125C20.4294 3.125 19.375 4.72938 19.375 5.9375C19.375 6.5625 20.5769 6.875 21.25 6.875C22.5513 6.875 23.75 6.20812 23.75 5ZM6.25 5C6.25 3.79188 6.96812 3.125 8.26937 3.125C9.57063 3.125 10.625 4.72938 10.625 5.9375C10.625 6.5625 9.42313 6.875 8.75 6.875C7.44875 6.875 6.25 6.20812 6.25 5Z" fill="#4DD0E1"/>
<path d="M21.875 4.375C21.7092 4.375 21.5503 4.44085 21.4331 4.55806C21.3158 4.67527 21.25 4.83424 21.25 5C21.25 5.16576 21.3158 5.32473 21.4331 5.44194C21.5503 5.55915 21.7092 5.625 21.875 5.625C22.0408 5.625 22.1997 5.55915 22.3169 5.44194C22.4342 5.32473 22.5 5.16576 22.5 5C22.5 4.83424 22.4342 4.67527 22.3169 4.55806C22.1997 4.44085 22.0408 4.375 21.875 4.375ZM8.125 4.375C7.95924 4.375 7.80027 4.44085 7.68306 4.55806C7.56585 4.67527 7.5 4.83424 7.5 5C7.5 5.16576 7.56585 5.32473 7.68306 5.44194C7.80027 5.55915 7.95924 5.625 8.125 5.625C8.29076 5.625 8.44973 5.55915 8.56694 5.44194C8.68415 5.32473 8.75 5.16576 8.75 5C8.75 4.83424 8.68415 4.67527 8.56694 4.55806C8.44973 4.44085 8.29076 4.375 8.125 4.375Z" fill="#424242"/>
<path d="M23.125 21.25C23.125 24.2337 21.1131 27.5 14.8063 27.5C9.73 27.5 6.875 24.2337 6.875 21.25C6.875 18.125 7.5 17.6213 7.5 15C7.5 12.07 7.5 10.625 7.5 8.75C7.5 5.76625 9.4225 1.875 14.8063 1.875C20.19 1.875 22.5 4.36938 22.5 8.125C22.5 10 22.3519 11.5331 22.5 14.375C22.6163 16.6012 23.125 19.375 23.125 21.25Z" fill="#4DD0E1"/>
<path d="M18.125 3.75C17.462 3.75 16.8261 4.01339 16.3572 4.48223C15.8884 4.95107 15.625 5.58696 15.625 6.25C15.625 6.91304 15.8884 7.54893 16.3572 8.01777C16.8261 8.48661 17.462 8.75 18.125 8.75C18.788 8.75 19.4239 8.48661 19.8928 8.01777C20.3616 7.54893 20.625 6.91304 20.625 6.25C20.625 5.58696 20.3616 4.95107 19.8928 4.48223C19.4239 4.01339 18.788 3.75 18.125 3.75ZM11.875 3.75C11.212 3.75 10.5761 4.01339 10.1072 4.48223C9.63839 4.95107 9.375 5.58696 9.375 6.25C9.375 6.91304 9.63839 7.54893 10.1072 8.01777C10.5761 8.48661 11.212 8.75 11.875 8.75C12.538 8.75 13.1739 8.48661 13.6428 8.01777C14.1116 7.54893 14.375 6.91304 14.375 6.25C14.375 5.58696 14.1116 4.95107 13.6428 4.48223C13.1739 4.01339 12.538 3.75 11.875 3.75Z" fill="#F5F5F5"/>
<path d="M15 12.5C15 12.845 15.28 13.125 15.625 13.125C15.97 13.125 16.25 12.845 16.25 12.5V10.625H15V12.5ZM13.75 12.5C13.75 12.845 14.03 13.125 14.375 13.125C14.72 13.125 15 12.845 15 12.5V10.625H13.75V12.5Z" fill="#EEEEEE"/>
<path d="M16.5625 11.25C16.305 11.25 16.1544 11.1969 15.9306 11.1219C15.3213 10.9169 14.6675 10.9181 14.0581 11.1231C13.8363 11.1975 13.6938 11.25 13.4375 11.25C12.6038 11.25 12.5 10.625 12.5 10.3125C12.5 9.375 13.4375 8.75 14.375 8.75C14.8969 8.75 15.1031 8.75 15.625 8.75C16.5625 8.75 17.5 9.375 17.5 10.3125C17.5 10.625 17.3962 11.25 16.5625 11.25Z" fill="#FFCC80"/>
<path d="M16.875 5.625C16.7092 5.625 16.5503 5.69085 16.4331 5.80806C16.3158 5.92527 16.25 6.08424 16.25 6.25C16.25 6.41576 16.3158 6.57473 16.4331 6.69194C16.5503 6.80915 16.7092 6.875 16.875 6.875C17.0408 6.875 17.1997 6.80915 17.3169 6.69194C17.4342 6.57473 17.5 6.41576 17.5 6.25C17.5 6.08424 17.4342 5.92527 17.3169 5.80806C17.1997 5.69085 17.0408 5.625 16.875 5.625ZM10.625 5.625C10.4592 5.625 10.3003 5.69085 10.1831 5.80806C10.0658 5.92527 10 6.08424 10 6.25C10 6.41576 10.0658 6.57473 10.1831 6.69194C10.3003 6.80915 10.4592 6.875 10.625 6.875C10.7908 6.875 10.9497 6.80915 11.0669 6.69194C11.1842 6.57473 11.25 6.41576 11.25 6.25C11.25 6.08424 11.1842 5.92527 11.0669 5.80806C10.9497 5.69085 10.7908 5.625 10.625 5.625ZM15 8.125C14.6685 8.125 14.3505 8.19085 14.1161 8.30806C13.8817 8.42527 13.75 8.58424 13.75 8.75C13.75 8.91576 13.8817 9.07473 14.1161 9.19194C14.3505 9.30915 14.6685 9.375 15 9.375C15.3315 9.375 15.6495 9.30915 15.8839 9.19194C16.1183 9.07473 16.25 8.91576 16.25 8.75C16.25 8.58424 16.1183 8.42527 15.8839 8.30806C15.6495 8.19085 15.3315 8.125 15 8.125Z" fill="#424242"/>
</svg>
