<svg width="30" height="30" viewBox="0 0 30 30" fill="none" xmlns="http://www.w3.org/2000/svg">
<path d="M3.75 6.25C3.75 4.86937 4.86937 3.75 6.25 3.75H23.75C25.1306 3.75 26.25 4.86937 26.25 6.25V23.75C26.25 25.1306 25.1306 26.25 23.75 26.25H6.25C4.86937 26.25 3.75 25.1306 3.75 23.75V6.25Z" fill="#03A9F4"/>
<path d="M12.51 11.9838H11.2588V14.755H12.4919C12.8338 14.755 13.0982 14.6431 13.2857 14.4194C13.4732 14.1956 13.5663 13.87 13.5663 13.4425C13.5663 12.9988 13.4707 12.6463 13.2794 12.3838C13.0882 12.1213 12.8313 11.9881 12.51 11.9838Z" fill="#020F16"/>
<path d="M5.625 5.625V24.375H24.375V5.625H5.625ZM14.6031 15.4931C14.0869 15.9981 13.3706 16.25 12.455 16.25H11.2587V19.375H9.46437V10.4881H12.4919C13.3706 10.4881 14.0719 10.7613 14.5944 11.3063C15.1169 11.8513 15.3788 12.5594 15.3788 13.43C15.3788 14.3006 15.12 14.9881 14.6031 15.4931ZM20.4262 18.96C19.9831 19.3181 19.4006 19.4969 18.6806 19.4969C18.1962 19.4969 17.7687 19.4025 17.3987 19.2131C17.0287 19.0237 16.7381 18.76 16.5287 18.4225C16.3194 18.085 16.2144 17.7206 16.2144 17.33H17.8562C17.865 17.6306 17.9344 17.8569 18.0669 18.0075C18.1994 18.1581 18.4156 18.2331 18.7169 18.2331C19.1806 18.2331 19.4125 18.0238 19.4125 17.6044C19.4125 17.4581 19.3425 17.3225 19.2019 17.1987C19.0612 17.075 18.75 16.9075 18.2656 16.6956C17.5538 16.4069 17.0644 16.1081 16.7975 15.7981C16.5306 15.4881 16.3975 15.1044 16.3975 14.6444C16.3975 14.0662 16.6062 13.5894 17.0231 13.2131C17.44 12.8369 17.9931 12.6488 18.68 12.6488C19.4038 12.6488 19.9838 12.8362 20.4194 13.21C20.855 13.5837 21.0725 14.0869 21.0725 14.7175H19.345C19.345 14.1806 19.1219 13.9119 18.6737 13.9119C18.4906 13.9119 18.3406 13.9688 18.2219 14.0825C18.1031 14.1962 18.045 14.3556 18.045 14.5588C18.045 14.705 18.11 14.8344 18.2406 14.9462C18.3712 15.0581 18.6775 15.2181 19.1625 15.4256C19.8669 15.6862 20.3638 15.9762 20.655 16.2956C20.9462 16.615 21.0912 17.0294 21.0912 17.5375C21.0912 18.1281 20.8694 18.6019 20.4262 18.96Z" fill="#020F16"/>
</svg>
