<svg width="30" height="30" viewBox="0 0 30 30" fill="none" xmlns="http://www.w3.org/2000/svg">
<path d="M26.8738 9.72271C26.8736 9.27388 26.7776 8.87727 26.5835 8.53698C26.3928 8.20217 26.1073 7.92163 25.7242 7.69982C22.5624 5.87672 19.3976 4.0592 16.2368 2.23424C15.3847 1.74229 14.5585 1.76032 13.7127 2.25933C12.4542 3.00143 6.15343 6.61129 4.27588 7.6988C3.50265 8.14651 3.12639 8.83155 3.12621 9.72187C3.125 13.3882 3.12621 17.0546 3.125 20.721C3.125 21.1599 3.21709 21.5489 3.40266 21.8841C3.59344 22.2289 3.88299 22.5172 4.27486 22.744C6.1525 23.8315 12.4541 27.4411 13.7123 28.1835C14.5585 28.6828 15.3847 28.7006 16.2371 28.2086C19.398 26.3835 22.563 24.566 25.7252 22.7429C26.1171 22.5162 26.4067 22.2277 26.5974 21.8832C26.7827 21.5479 26.875 21.159 26.875 20.7199C26.875 20.7199 26.875 13.3892 26.8738 9.72271Z" fill="#A179DC"/>
<path d="M15.0363 15.1857L3.40259 21.8841C3.59336 22.2289 3.88292 22.5172 4.27478 22.744C6.15243 23.8315 12.4541 27.4411 13.7123 28.1835C14.5584 28.6828 15.3846 28.7006 16.237 28.2086C19.3979 26.3835 22.5629 24.566 25.7252 22.7429C26.117 22.5162 26.4066 22.2277 26.5974 21.8832L15.0363 15.1857Z" fill="#280068"/>
<path d="M26.8738 9.72271C26.8736 9.27388 26.7777 8.87728 26.5835 8.53699L15.0364 15.1858L26.5975 21.8832C26.7828 21.5479 26.8749 21.159 26.875 20.7199C26.875 20.7199 26.875 13.3892 26.8738 9.72271Z" fill="#390091"/>
<path d="M21.8858 12.6815V13.9336H23.1379V12.6815H23.7639V13.9336H25.016V14.5596H23.7639V15.8116H25.016V16.4376H23.7639V17.6897H23.1379V16.4376H21.8858V17.6897H21.2598V16.4376H20.0078V15.8116H21.2598V14.5596H20.0078V13.9336H21.2598V12.6815H21.8858ZM23.1379 14.5595H21.8858V15.8116H23.1379V14.5595Z" fill="white"/>
<path d="M15.0619 6.39353C18.3276 6.39353 21.1789 8.1671 22.7061 10.8034L22.6912 10.778L18.8488 12.9904C18.0918 11.7087 16.704 10.8436 15.112 10.8258L15.0618 10.8255C12.6341 10.8255 10.666 12.7937 10.666 15.2213C10.6652 15.9865 10.8651 16.7385 11.2457 17.4023C12.0034 18.7251 13.4279 19.6172 15.0619 19.6172C16.706 19.6172 18.1385 18.7137 18.8923 17.3768L18.874 17.4089L22.7106 19.6315C21.2001 22.2454 18.3879 24.0135 15.1602 24.0487L15.0619 24.0493C11.7858 24.0493 8.92649 22.2648 7.40307 19.6145C6.65939 18.3207 6.23389 16.8208 6.23389 15.2213C6.23389 10.3459 10.1862 6.39343 15.0618 6.39343L15.0619 6.39353Z" fill="white"/>
</svg>
