<svg width="30" height="30" viewBox="0 0 30 30" fill="none" xmlns="http://www.w3.org/2000/svg">
<g clip-path="url(#clip0_4_250)">
<path d="M-5 11H-2.33333V25.6667H0.333333V8.33337H-5V11Z" fill="#C74343"/>
<path d="M-2.33337 7.00004H1.66663V25.6667H4.33329V4.33337H-2.33337V7.00004ZM9.66663 15C9.66663 10.588 13.2546 7.00004 17.6666 7.00004C22.0786 7.00004 25.6666 10.588 25.6666 15H28.3333C28.3333 9.11871 23.548 4.33337 17.6666 4.33337C11.7853 4.33337 6.99996 9.11871 6.99996 15C6.99996 20.8814 11.7853 25.6667 17.6666 25.6667H35V23H17.6666C13.2546 23 9.66663 19.412 9.66663 15Z" fill="#C74343"/>
<path d="M17.6667 17.6666C16.196 17.6666 15 16.4706 15 15C15 13.5293 16.196 12.3333 17.6667 12.3333C19.1374 12.3333 20.3334 13.5293 20.3334 15H23C23 12.0586 20.608 9.66663 17.6667 9.66663C14.7254 9.66663 12.3334 12.0586 12.3334 15C12.3334 17.9413 14.7254 20.3333 17.6667 20.3333H35V17.6666H17.6667Z" fill="#C74343"/>
</g>
<defs>
<clipPath id="clip0_4_250">
<rect width="30" height="30" fill="white"/>
</clipPath>
</defs>
</svg>
