<svg width="30" height="30" viewBox="0 0 30 30" fill="none" xmlns="http://www.w3.org/2000/svg">
<path d="M25.625 3.125H4.375L6.25 24.375L15 26.875L23.75 24.375L25.625 3.125Z" fill="#0277BD"/>
<path d="M15 5V24.9375L22 22.9375L23.5625 5H15Z" fill="#039BE5"/>
<path d="M20.6875 8.125H15V10.625H18.0625L17.875 13.125H15V15.625H17.75L17.5625 18.4375L15 19.3125V21.9375L19.9375 20.3125L20.375 13.125L20.6875 8.125Z" fill="white"/>
<path d="M15 8.125V10.625H9.4375L9.25 8.125H15ZM12.125 13.125L12.25 15.625H15V13.125H12.125ZM12.375 16.875H9.875L10.0625 20.3125L15 21.9375V19.3125L12.4375 18.4375L12.375 16.875Z" fill="#EEEEEE"/>
</svg>
