<svg width="30" height="30" viewBox="0 0 30 30" fill="none" xmlns="http://www.w3.org/2000/svg">
<g clip-path="url(#clip0_4_247)">
<path d="M15 23.0625C6.8325 23.0625 0.1875 19.4456 0.1875 15C0.1875 10.5544 6.8325 6.9375 15 6.9375C23.1675 6.9375 29.8125 10.5544 29.8125 15C29.8125 19.4456 23.1675 23.0625 15 23.0625Z" fill="#DCD5F2"/>
<path d="M15 7.125C23.0644 7.125 29.625 10.6579 29.625 15C29.625 19.3421 23.0644 22.875 15 22.875C6.93563 22.875 0.375 19.3421 0.375 15C0.375 10.6579 6.93563 7.125 15 7.125ZM15 6.75C6.71588 6.75 0 10.4438 0 15C0 19.5562 6.71588 23.25 15 23.25C23.2841 23.25 30 19.5562 30 15C30 10.4438 23.2841 6.75 15 6.75Z" fill="#8B75A1"/>
<path d="M9.417 12.75C10.0639 12.75 10.6222 12.9833 10.9485 13.3898C11.2294 13.74 11.3164 14.2039 11.199 14.7311C10.8836 16.1528 10.2731 16.5 8.08875 16.5H6.53625L7.1925 12.75H9.417ZM9.417 12H6.5625L5.25 19.5H6L6.396 17.25H8.08912C10.2877 17.25 11.484 16.9106 11.9314 14.8935C12.3157 13.161 11.0385 12 9.417 12ZM22.917 12.75C23.5639 12.75 24.1222 12.9833 24.4485 13.3898C24.7294 13.74 24.8164 14.2039 24.699 14.7311C24.3836 16.1528 23.7731 16.5 21.5887 16.5H20.0362L20.6925 12.75H22.917ZM22.917 12H20.0625L18.75 19.5H19.5L19.896 17.25H21.5891C23.7877 17.25 24.984 16.9106 25.4314 14.8935C25.8157 13.161 24.5385 12 22.917 12Z" fill="#36404D"/>
<path d="M18.402 12.4545C18.0724 12.1305 17.4915 12 16.6252 12H14.5485L15 9.75H14.2125L12.75 17.25H13.4963L14.3917 12.75H14.5489H16.6256C17.5024 12.75 17.7859 12.9 17.8762 12.9889C18.0049 13.1156 18.0353 13.4486 17.9576 13.875L17.295 17.25H18.0848L18.6945 14.0137C18.8246 13.2982 18.726 12.7733 18.402 12.4545Z" fill="#36404D"/>
</g>
<defs>
<clipPath id="clip0_4_247">
<rect width="30" height="30" fill="white"/>
</clipPath>
</defs>
</svg>
