<svg width="30" height="30" viewBox="0 0 30 30" fill="none" xmlns="http://www.w3.org/2000/svg">
<path d="M15.0044 28.3869C14.6456 28.3869 14.29 28.2931 13.9756 28.1119L10.7006 26.1725C10.2113 25.8987 10.45 25.8019 10.6113 25.7462C11.2638 25.5181 11.3956 25.4662 12.0919 25.0706C12.165 25.0287 12.2606 25.0437 12.3356 25.0881L14.8519 26.5812C14.9425 26.6306 15.0719 26.6306 15.1556 26.5812L24.9662 20.9181C25.0569 20.8662 25.1163 20.7612 25.1163 20.6531V9.33248C25.1163 9.21936 25.0575 9.11873 24.9644 9.06248L15.1581 3.40373C15.0675 3.34998 14.9469 3.34998 14.8563 3.40373L5.05125 9.06186C4.95625 9.11561 4.89563 9.22123 4.89563 9.32936V20.6506C4.89563 20.7587 4.95437 20.8619 5.04812 20.9131L7.735 22.465C9.19375 23.1944 10.085 22.335 10.085 21.4706V10.2975C10.085 10.1381 10.21 10.015 10.37 10.015H11.6125C11.7675 10.015 11.895 10.1375 11.895 10.2975V21.4762C11.895 23.4212 10.8344 24.5387 8.99 24.5387C8.4225 24.5387 7.97563 24.5387 6.72813 23.925L4.15437 22.4419C3.51812 22.0731 3.125 21.385 3.125 20.6512V9.32998C3.125 8.59311 3.51812 7.90561 4.15375 7.54186L13.975 1.87623C14.5963 1.52498 15.4212 1.52498 16.0381 1.87623L25.8469 7.54436C26.4794 7.90998 26.875 8.59561 26.875 9.33248V20.6537C26.875 21.3881 26.4794 22.0731 25.8463 22.4419L16.0375 28.1069C15.7231 28.2887 15.3669 28.3819 15.0037 28.3819" fill="#21A366"/>
<path d="M18.035 20.5856C13.7425 20.5856 12.8425 18.615 12.8425 16.9625C12.8425 16.8056 12.9694 16.68 13.1269 16.68H14.3944C14.5344 16.68 14.6525 16.7818 14.6744 16.92C14.8657 18.2112 15.4357 18.8625 18.0313 18.8625C20.0988 18.8625 20.9782 18.3956 20.9782 17.2987C20.9782 16.6675 20.7275 16.1987 17.5157 15.8843C14.8288 15.6193 13.1688 15.0275 13.1688 12.8787C13.1688 10.8993 14.8388 9.72058 17.6357 9.72058C20.7769 9.72058 22.3338 10.8112 22.53 13.1537C22.5375 13.235 22.5082 13.3131 22.4538 13.3725C22.4 13.4287 22.3238 13.4631 22.245 13.4631H20.9707C20.8382 13.4631 20.7225 13.37 20.6957 13.2418C20.3888 11.8837 19.6469 11.4493 17.6307 11.4493C15.3738 11.4493 15.1113 12.235 15.1113 12.8243C15.1113 13.5387 15.4207 13.7475 18.4657 14.1506C21.4813 14.5506 22.9132 15.1156 22.9132 17.235C22.9132 19.3712 21.13 20.5968 18.0213 20.5968" fill="#21A366"/>
</svg>
