<svg width="30" height="30" viewBox="0 0 30 30" fill="none" xmlns="http://www.w3.org/2000/svg">
<path d="M15 28C22.1797 28 28 22.1797 28 15C28 7.8203 22.1797 2 15 2C7.8203 2 2 7.8203 2 15C2 22.1797 7.8203 28 15 28Z" fill="#012169"/>
<path d="M25.017 6.71533L15.0001 12.7257L4.98313 6.71533C4.15 7.72278 3.47388 8.85033 2.97766 10.0598L11.211 14.9998L2.97766 19.9398C3.4735 21.1495 4.14933 22.2774 4.98226 23.2851L15.0001 17.2739L25.0179 23.2843C25.8508 22.2765 26.5266 21.1487 27.0225 19.9389L18.7891 14.9989L27.0225 10.0589C26.5262 8.84976 25.85 7.72251 25.017 6.71533Z" fill="white"/>
<path d="M4.5895 22.7628L16.2626 15.7584L26.1357 21.682C26.3596 21.3098 26.5646 20.9265 26.7502 20.5337L16.2635 14.2417L26.1357 8.3189C25.9109 7.94566 25.6691 7.58513 25.4103 7.2373L13.7363 14.2417L3.86323 8.3189C3.64079 8.68984 3.43626 9.07233 3.24963 9.46637L13.7363 15.7584L3.86323 21.682C4.08712 22.0542 4.32951 22.4149 4.5895 22.7628Z" fill="#C8102E"/>
<path d="M18.25 2.4264C16.1206 1.85787 13.8794 1.85787 11.75 2.4264V11.75H2.4264C1.85787 13.8794 1.85787 16.1206 2.4264 18.25H11.75V27.5736C13.8794 28.1421 16.1206 28.1421 18.25 27.5736V18.25H27.5736C28.1421 16.1206 28.1421 13.8794 27.5736 11.75H18.25V2.4264Z" fill="white"/>
<path d="M16.95 2.16207C16.305 2.05924 15.6531 2.00506 15 2C14.3468 2.00506 13.695 2.05924 13.05 2.16207V13.05H2.16207C2.05924 13.695 2.00506 14.3468 2 15C2.00506 15.6531 2.05924 16.305 2.16207 16.95H13.05V27.8379C13.695 27.9407 14.3468 27.9949 15 28C15.6531 27.9949 16.305 27.9407 16.95 27.8379V16.95H27.8379C27.9407 16.305 27.9949 15.6531 28 15C27.9949 14.3468 27.9407 13.695 27.8379 13.05H16.95V2.16207Z" fill="#C8102E"/>
</svg>
