<svg width="123" height="70" viewBox="0 0 123 70" fill="none" xmlns="http://www.w3.org/2000/svg">
<path d="M100.363 24.4531H75.6367C74.1858 24.4531 73 25.6337 73 27.0898V42.9102C73 44.3668 74.1866 45.5469 75.6367 45.5469H100.363C101.814 45.5469 103 44.3663 103 42.9102V27.0898C103 25.6334 101.814 24.4531 100.363 24.4531ZM99.9584 26.2109L88.6811 37.525C88.3375 37.8697 87.6627 37.8699 87.3189 37.525L76.0416 26.2109H99.9584ZM74.7578 42.587V27.413L82.3202 35L74.7578 42.587ZM76.0416 43.7891L83.5612 36.245L86.074 38.766C87.1037 39.7991 88.8967 39.7987 89.9261 38.766L92.4389 36.2451L99.9584 43.7891H76.0416ZM101.242 42.587L93.6798 35L101.242 27.413V42.587Z" fill="black"/>
<g clip-path="url(#clip0_9_201)">
<path d="M48.1578 41.1819C48.1081 41.1406 42.4934 37.1225 40.97 37.3859C40.2378 37.5153 39.8188 38.0141 38.9797 39.0144C38.7477 39.2926 38.5105 39.5664 38.2681 39.8356C37.7378 39.6629 37.2205 39.4523 36.7203 39.2056C34.138 37.9484 32.0516 35.862 30.7944 33.2797C30.5477 32.7795 30.3371 32.2622 30.1644 31.7319C30.44 31.4797 30.8262 31.1544 30.9912 31.0156C31.9859 30.1813 32.4847 29.7622 32.6141 29.0291C32.8794 27.5112 28.8594 21.8919 28.8181 21.8412C28.6351 21.5816 28.3966 21.3659 28.12 21.2096C27.8434 21.0533 27.5356 20.9604 27.2187 20.9375C25.5894 20.9375 20.9375 26.9712 20.9375 27.9884C20.9375 28.0475 21.0228 34.0512 28.4262 41.5822C35.9488 48.9772 41.9525 49.0625 42.0116 49.0625C43.0288 49.0625 49.0625 44.4106 49.0625 42.7812C49.0397 42.4643 48.9466 42.1563 48.7902 41.8797C48.6337 41.6031 48.4177 41.3648 48.1578 41.1819ZM41.9084 47.1819C41.0891 47.1144 36.0509 46.4497 29.7519 40.2612C23.5316 33.9284 22.8837 28.8763 22.8191 28.0934C24.0479 26.1647 25.532 24.411 27.2309 22.88C27.2684 22.9175 27.3181 22.9737 27.3819 23.0469C28.6848 24.8255 29.8073 26.7296 30.7325 28.7309C30.4316 29.0336 30.1136 29.3188 29.78 29.585C29.2627 29.9792 28.7876 30.4259 28.3625 30.9181L28.1347 31.2369L28.2022 31.6222C28.4006 32.4816 28.7045 33.3132 29.1069 34.0981C30.5486 37.0588 32.941 39.4508 35.9019 40.8922C36.6866 41.2952 37.5183 41.5994 38.3778 41.7978L38.7631 41.8653L39.0819 41.6375C39.5759 41.2105 40.0246 40.7336 40.4206 40.2144C40.7141 39.8638 41.1069 39.3959 41.255 39.2638C43.262 40.1881 45.171 41.3119 46.9531 42.6181C47.0309 42.6837 47.0853 42.7344 47.1219 42.7672C45.5912 44.4667 43.8374 45.9511 41.9084 47.18V47.1819Z" fill="black"/>
</g>
<rect x="0.5" y="0.5" width="122" height="69" rx="4.5" stroke="#9747FF" stroke-dasharray="10 5"/>
<defs>
<clipPath id="clip0_9_201">
<rect width="30" height="30" fill="white" transform="translate(20 20)"/>
</clipPath>
</defs>
</svg>
