<svg width="30" height="30" viewBox="0 0 30 30" fill="none" xmlns="http://www.w3.org/2000/svg">
<path d="M27.3633 4.45312H2.63672C1.18582 4.45312 0 5.63373 0 7.08984V22.9102C0 24.3668 1.18658 25.5469 2.63672 25.5469H27.3633C28.8142 25.5469 30 24.3663 30 22.9102V7.08984C30 5.63338 28.8136 4.45312 27.3633 4.45312ZM26.9584 6.21094L15.6811 17.525C15.3375 17.8697 14.6627 17.8699 14.3189 17.525L3.0416 6.21094H26.9584ZM1.75781 22.587V7.41299L9.32022 15L1.75781 22.587ZM3.0416 23.7891L10.5612 16.245L13.074 18.766C14.1037 19.7991 15.8967 19.7987 16.9261 18.766L19.4389 16.2451L26.9584 23.7891H3.0416ZM28.2422 22.587L20.6798 15L28.2422 7.41299V22.587Z" fill="black"/>
</svg>
