<svg width="30" height="30" viewBox="0 0 30 30" fill="none" xmlns="http://www.w3.org/2000/svg">
<g clip-path="url(#clip0_9_198)">
<path d="M28.1578 21.1819C28.1081 21.1406 22.4934 17.1225 20.97 17.3859C20.2378 17.5153 19.8188 18.0141 18.9797 19.0144C18.7477 19.2926 18.5105 19.5664 18.2681 19.8356C17.7378 19.6629 17.2205 19.4523 16.7203 19.2056C14.138 17.9484 12.0516 15.862 10.7944 13.2797C10.5477 12.7795 10.3371 12.2622 10.1644 11.7319C10.44 11.4797 10.8263 11.1544 10.9913 11.0156C11.9859 10.1812 12.4847 9.76219 12.6141 9.02906C12.8794 7.51125 8.85938 1.89187 8.81813 1.84125C8.63505 1.58162 8.39662 1.36587 8.12003 1.20958C7.84345 1.05329 7.53561 0.960361 7.21875 0.9375C5.58938 0.9375 0.9375 6.97125 0.9375 7.98844C0.9375 8.0475 1.02281 14.0512 8.42625 21.5822C15.9488 28.9772 21.9525 29.0625 22.0116 29.0625C23.0287 29.0625 29.0625 24.4106 29.0625 22.7812C29.0397 22.4643 28.9466 22.1563 28.7902 21.8797C28.6337 21.6031 28.4177 21.3648 28.1578 21.1819ZM21.9084 27.1819C21.0891 27.1144 16.0509 26.4497 9.75187 20.2612C3.53156 13.9284 2.88375 8.87625 2.81906 8.09344C4.04792 6.16467 5.53199 4.41096 7.23094 2.88C7.26844 2.9175 7.31813 2.97375 7.38188 3.04688C8.68484 4.82553 9.80726 6.72963 10.7325 8.73094C10.4316 9.03363 10.1136 9.31879 9.78 9.585C9.26268 9.97917 8.78764 10.4259 8.3625 10.9181L8.13469 11.2369L8.20219 11.6222C8.40059 12.4816 8.70446 13.3132 9.10687 14.0981C10.5486 17.0588 12.941 19.4508 15.9019 20.8922C16.6866 21.2952 17.5183 21.5994 18.3778 21.7978L18.7631 21.8653L19.0819 21.6375C19.5759 21.2105 20.0246 20.7336 20.4206 20.2144C20.7141 19.8638 21.1069 19.3959 21.255 19.2638C23.262 20.1881 25.171 21.3119 26.9531 22.6181C27.0309 22.6838 27.0853 22.7344 27.1219 22.7672C25.5912 24.4667 23.8374 25.9511 21.9084 27.18V27.1819Z" fill="black"/>
</g>
<defs>
<clipPath id="clip0_9_198">
<rect width="30" height="30" fill="white"/>
</clipPath>
</defs>
</svg>
