<svg width="60" height="60" viewBox="0 0 60 60" fill="none" xmlns="http://www.w3.org/2000/svg">
<g clip-path="url(#clip0_1_11)">
<path d="M59.3413 30.6587C59.3413 44.6414 49.5604 56.3396 36.4671 59.2849C36.4671 59.2849 35.9309 58.0339 35.2695 58.0339C34.608 58.0339 34.0719 59.7196 34.0719 59.7196C32.8055 59.8954 31.5132 59.9904 30.2005 59.9993C28.8878 60.0081 29.6643 58.0339 29.0029 58.0339C28.3414 58.0339 27.8053 59.9192 27.8053 59.9192C26.1699 59.7986 24.5475 59.541 22.9552 59.1489C22.5218 59.042 22.2519 58.4642 21.8264 58.3383C21.4544 58.2284 20.9258 58.5726 20.5601 58.4484C8.98648 54.5182 0.658691 43.5609 0.658691 30.6587C0.658691 14.4539 13.7952 1.31735 30 1.31735C34.3593 1.31735 38.4965 2.26801 42.2157 3.97328C43.4334 4.5316 44.4926 5.30466 45.6138 6.01795C46.5622 6.6213 47.5873 7.14382 48.4576 7.84885C55.0971 13.2281 59.3413 21.4478 59.3413 30.6587Z" fill="#012D4E"/>
<path d="M22.9551 21.0793V31.9146C22.9551 32.5761 22.4189 33.1122 21.7575 33.1122C21.0961 33.1122 20.5599 32.5761 20.5599 31.9146V22.2769H19.4416C18.7801 22.2769 18.244 21.7407 18.244 21.0793C18.244 20.4179 18.7801 19.8817 19.4416 19.8817H21.7575C22.4189 19.8817 22.9551 20.4179 22.9551 21.0793ZM33.2941 35.8713H30.9782C30.3168 35.8713 29.7806 36.4074 29.7806 37.0689C29.7806 37.7303 30.3168 38.2665 30.9782 38.2665H32.0965V47.9042C32.0965 48.5656 32.6327 49.1018 33.2941 49.1018C33.9556 49.1018 34.4918 48.5656 34.4918 47.9042V37.0689C34.4918 36.4074 33.9556 35.8713 33.2941 35.8713ZM10.8183 35.8713H8.50229C7.84086 35.8713 7.30469 36.4074 7.30469 37.0689C7.30469 37.7303 7.84086 38.2665 8.50229 38.2665H9.62062V47.9042C9.62062 48.5656 10.1568 49.1018 10.8182 49.1018C11.4797 49.1018 12.0158 48.5656 12.0158 47.9042V37.0689C12.0159 36.4074 11.4797 35.8713 10.8183 35.8713ZM21.7575 51.7181H19.4416C18.7801 51.7181 18.244 52.2543 18.244 52.9157C18.244 53.5771 18.7801 54.1133 19.4416 54.1133H20.5599V58.4483C21.3479 58.7158 22.1471 58.9496 22.9551 59.1488V52.9157C22.9551 52.2543 22.4189 51.7181 21.7575 51.7181ZM54.1912 19.8817H51.8752C51.2138 19.8817 50.6776 20.4179 50.6776 21.0793C50.6776 21.7407 51.2138 22.2769 51.8752 22.2769H52.9936V31.9146C52.9936 32.5761 53.5297 33.1122 54.1912 33.1122C54.8526 33.1122 55.3888 32.5761 55.3888 31.9146V21.0793C55.3888 20.4179 54.8526 19.8817 54.1912 19.8817ZM44.3316 19.8817H42.0157C41.3543 19.8817 40.8181 20.4179 40.8181 21.0793C40.8181 21.7407 41.3543 22.2769 42.0157 22.2769H43.134V31.9146C43.134 32.5761 43.6702 33.1122 44.3316 33.1122C44.9931 33.1122 45.5292 32.5761 45.5292 31.9146V21.0793C45.5292 20.4179 44.9931 19.8817 44.3316 19.8817Z" fill="#0AB59E"/>
<path d="M32.1362 33.3333C29.7481 33.3333 27.8053 31.3904 27.8053 29.0024V23.9915C27.8053 21.6035 29.7481 19.6605 32.1362 19.6605C34.5242 19.6605 36.4671 21.6033 36.4671 23.9915V29.0024C36.4671 31.3904 34.5242 33.3333 32.1362 33.3333ZM32.1362 22.0557C31.0687 22.0557 30.2005 22.9241 30.2005 23.9915V29.0024C30.2005 30.0697 31.0689 30.9381 32.1362 30.9381C33.2035 30.9381 34.0719 30.0697 34.0719 29.0024V23.9915C34.0719 22.9241 33.2036 22.0557 32.1362 22.0557ZM9.66024 33.3333C7.27222 33.3333 5.32935 31.3904 5.32935 29.0024V23.9915C5.32935 21.6035 7.27222 19.6605 9.66024 19.6605C12.0483 19.6605 13.9911 21.6033 13.9911 23.9915V29.0024C13.9911 31.3904 12.0484 33.3333 9.66024 33.3333ZM9.66024 22.0557C8.59282 22.0557 7.72456 22.9241 7.72456 23.9915V29.0024C7.72456 30.0697 8.59282 30.9381 9.66024 30.9381C10.7277 30.9381 11.5959 30.0697 11.5959 29.0024V23.9915C11.5959 22.9241 10.7277 22.0557 9.66024 22.0557ZM32.1362 51.497C29.7481 51.497 27.8053 53.4399 27.8053 55.8279V59.9192C28.6023 59.978 29.4013 60.0047 30.2005 59.9993V55.8279C30.2005 54.7606 31.0689 53.8922 32.1362 53.8922C33.2035 53.8922 34.0719 54.7606 34.0719 55.8279V59.7196C34.876 59.6081 35.6751 59.463 36.4671 59.2849V55.8279C36.4671 53.4399 34.5242 51.497 32.1362 51.497ZM20.5995 49.1018C18.2115 49.1018 16.2686 47.1589 16.2686 44.7709V39.76C16.2686 37.372 18.2115 35.429 20.5995 35.429C22.9875 35.429 24.9304 37.3718 24.9304 39.76V44.7709C24.9304 47.1589 22.9875 49.1018 20.5995 49.1018ZM20.5995 37.8242C19.5321 37.8242 18.6638 38.6926 18.6638 39.76V44.7709C18.6638 45.8382 19.5321 46.7066 20.5995 46.7066C21.667 46.7066 22.5352 45.8382 22.5352 44.7709V39.76C22.5352 38.6926 21.6668 37.8242 20.5995 37.8242ZM32.1362 17.2087C29.7481 17.2087 27.8053 15.2659 27.8053 12.8777V7.86682C27.8053 5.47879 29.7481 3.53592 32.1362 3.53592C34.5242 3.53592 36.4671 5.47879 36.4671 7.86682V12.8777C36.4671 15.2659 34.5242 17.2087 32.1362 17.2087ZM32.1362 5.93113C31.0687 5.93113 30.2005 6.79951 30.2005 7.86682V12.8777C30.2005 13.9451 31.0689 14.8135 32.1362 14.8135C33.2035 14.8135 34.0719 13.9451 34.0719 12.8777V7.86682C34.0719 6.79951 33.2036 5.93113 32.1362 5.93113ZM39.7813 7.86682V12.8777C39.7813 15.2657 41.7242 17.2087 44.1122 17.2087C46.5002 17.2087 48.4431 15.2659 48.4431 12.8777V7.86682L48.4429 7.837C46.5368 6.29407 44.4449 4.99613 42.2161 3.97352C40.7757 4.67784 39.7813 6.15831 39.7813 7.86682ZM46.0479 7.86682V12.8777C46.0479 13.9451 45.1796 14.8135 44.1122 14.8135C43.0448 14.8135 42.1765 13.9451 42.1765 12.8777V7.86682C42.1765 6.79951 43.0448 5.93113 44.1122 5.93113C45.1796 5.93113 46.0479 6.79951 46.0479 7.86682Z" fill="#5AFFB7"/>
<path d="M22.9947 14.3713C22.9947 15.6941 21.9224 16.7665 20.5995 16.7665C19.2767 16.7665 18.2043 15.6941 18.2043 14.3713C18.2043 13.0484 19.2767 11.976 20.5995 11.976C21.9224 11.976 22.9947 13.0484 22.9947 14.3713ZM20.5995 9.58084C21.5916 9.58084 22.3959 8.77653 22.3959 7.78443C22.3959 6.79234 21.5916 5.98802 20.5995 5.98802C19.6074 5.98802 18.8031 6.79234 18.8031 7.78443C18.8031 8.77653 19.6074 9.58084 20.5995 9.58084ZM20.5995 3.59281C21.5916 3.59281 22.3959 2.7885 22.3959 1.79641C22.3959 0.804311 21.5916 0 20.5995 0C19.6074 0 18.8031 0.804311 18.8031 1.79641C18.8031 2.7885 19.6074 3.59281 20.5995 3.59281ZM44.1122 40.7186C42.7893 40.7186 41.717 39.6462 41.717 38.3234C41.717 37.0005 42.7893 35.9281 44.1122 35.9281C45.4351 35.9281 46.5074 37.0005 46.5074 38.3234C46.5074 39.6462 45.4351 40.7186 44.1122 40.7186ZM42.3158 44.9102C42.3158 45.9023 43.1201 46.7066 44.1122 46.7066C45.1043 46.7066 45.9086 45.9023 45.9086 44.9102C45.9086 43.9181 45.1043 43.1138 44.1122 43.1138C43.1201 43.1138 42.3158 43.9181 42.3158 44.9102ZM42.3158 50.8982C42.3158 51.8903 43.1201 52.6946 44.1122 52.6946C45.1043 52.6946 45.9086 51.8903 45.9086 50.8982C45.9086 49.9061 45.1043 49.1018 44.1122 49.1018C43.1201 49.1018 42.3158 49.9061 42.3158 50.8982Z" fill="#006E66"/>
<path d="M22.9947 14.3713C22.9947 14.6824 22.9355 14.9795 22.8276 15.2522C22.5471 15.363 22.2482 15.4198 21.9466 15.4194C20.6237 15.4194 19.5514 14.3471 19.5514 13.0242C19.5514 12.7131 19.6107 12.4159 19.7186 12.1432C19.999 12.0324 20.298 11.9757 20.5995 11.976C21.9224 11.976 22.9947 13.0484 22.9947 14.3713ZM20.5995 5.98802C20.4606 5.98802 20.3255 6.00383 20.1957 6.03365C20.1653 6.16611 20.15 6.30158 20.1501 6.43748C20.1501 7.42958 20.9544 8.23389 21.9465 8.23389C22.0854 8.23389 22.2205 8.21808 22.3503 8.18826C22.3807 8.0558 22.396 7.92033 22.3959 7.78443C22.3959 6.79234 21.5916 5.98802 20.5995 5.98802ZM21.9465 2.24587C22.0854 2.24587 22.2205 2.23006 22.3503 2.20024C22.3807 2.06778 22.396 1.93231 22.3959 1.79641C22.3959 0.804311 21.5916 0 20.5995 0C20.4606 0 20.3255 0.0158084 20.1957 0.0456287C20.1653 0.178089 20.15 0.313561 20.1501 0.449461C20.1501 1.44156 20.9544 2.24587 21.9465 2.24587ZM46.5074 38.3234C46.5074 38.0122 46.4482 37.7151 46.3403 37.4424C46.0598 37.3316 45.7609 37.2748 45.4593 37.2752C44.1364 37.2752 43.0641 38.3475 43.0641 39.6704C43.0641 39.9816 43.1234 40.2787 43.2313 40.5514C43.5117 40.6622 43.8107 40.7189 44.1122 40.7186C45.4351 40.7186 46.5074 39.6462 46.5074 38.3234ZM45.9086 44.9102C45.9086 44.7713 45.8928 44.6362 45.863 44.5063C45.7305 44.476 45.5951 44.4607 45.4592 44.4607C44.4671 44.4607 43.6628 45.265 43.6628 46.2571C43.6628 46.396 43.6786 46.5311 43.7084 46.661C43.8409 46.6913 43.9763 46.7066 44.1122 46.7066C45.1043 46.7066 45.9086 45.9023 45.9086 44.9102ZM43.6628 52.2451C43.6628 52.3841 43.6786 52.5192 43.7084 52.649C43.8409 52.6794 43.9763 52.6947 44.1122 52.6946C45.1043 52.6946 45.9086 51.8903 45.9086 50.8982C45.9086 50.7593 45.8928 50.6242 45.863 50.4944C45.7305 50.464 45.5951 50.4487 45.4592 50.4487C44.4671 50.4487 43.6628 51.2531 43.6628 52.2451Z" fill="#06995F"/>
</g>
<defs>
<clipPath id="clip0_1_11">
<rect width="60" height="60" fill="white"/>
</clipPath>
</defs>
</svg>
